<svg width="1125" height="424" viewBox="0 0 1125 424" fill="none" xmlns="http://www.w3.org/2000/svg">
<rect x="0.514771" y="28.517" width="179.506" height="65" rx="13" fill="white"/>
<rect opacity="0.5" x="10.5148" y="38.517" width="45.5058" height="45" rx="7.89474" fill="#D1FFCC"/>
<path fill-rule="evenodd" clip-rule="evenodd" d="M40.0995 61.4958L37.8351 59.4664L34.797 67.4292L40.0995 61.4958ZM34.6915 63.7166L36.8662 58.0197C36.8662 58.0183 36.8669 58.0169 36.8676 58.0155L37.42 56.5682L34.6915 55.5243V63.7166ZM33.4382 67.0033H29.254L32.905 68.4006L33.4382 67.0033ZM32.6624 69.8176L28.7579 68.3231L31.6679 70.9305L32.6624 69.8176ZM26.1495 65.5954H33.2679V52.9248H26.1495V65.5954ZM41.6318 61.9069L32.2569 72.3968C32.1309 72.5383 31.953 72.6234 31.7629 72.6333C31.7501 72.634 31.7366 72.6347 31.7231 72.6347C31.5472 72.6347 31.3764 72.57 31.2454 72.4524L24.9599 66.8196C24.9571 66.8175 24.9563 66.814 24.9528 66.8111C24.9492 66.8076 24.9442 66.8055 24.9414 66.802C24.8994 66.7612 24.8723 66.7105 24.841 66.6612C24.8254 66.6359 24.8026 66.614 24.7905 66.588C24.7891 66.5845 24.7869 66.5831 24.7862 66.5803C24.7706 66.5458 24.7698 66.5056 24.7606 66.469C24.7592 66.4648 24.7585 66.4599 24.757 66.455C24.7471 66.4113 24.7293 66.3705 24.7278 66.3261C24.7271 66.3205 24.7278 66.3149 24.7278 66.3092C24.7278 66.3057 24.7257 66.3029 24.7257 66.2994V52.2209C24.7257 51.8316 25.0446 51.517 25.4375 51.517H33.9796C34.3732 51.517 34.6914 51.8316 34.6914 52.2209V54.0145L38.5916 55.5068C38.9567 55.6462 39.139 56.0509 39.0009 56.4121L38.3759 58.0501L41.5763 60.9193C41.8646 61.1783 41.8895 61.6183 41.6318 61.9069ZM28.997 58.2042C28.997 58.3984 29.1565 58.5561 29.353 58.5561H30.0648C31.0464 58.5561 31.8444 59.3452 31.8444 60.3159C31.8444 61.1663 31.2322 61.8765 30.4207 62.0398V62.7797C30.4207 63.1689 30.1025 63.4836 29.7089 63.4836C29.3159 63.4836 28.997 63.1689 28.997 62.7797V62.0757H28.2852C27.8923 62.0757 27.5734 61.7611 27.5734 61.3718C27.5734 60.9826 27.8923 60.6679 28.2852 60.6679H30.0655C30.2613 60.6679 30.4207 60.5102 30.4207 60.3159C30.4207 60.1224 30.2613 59.964 30.0648 59.964H29.353C28.372 59.964 27.5734 59.1749 27.5734 58.2042C27.5734 57.3538 28.1863 56.6436 28.997 56.4802V55.7404C28.997 55.3512 29.3159 55.0365 29.7089 55.0365C30.1025 55.0365 30.4207 55.3512 30.4207 55.7404V56.4443H31.1325C31.5262 56.4443 31.8444 56.759 31.8444 57.1483C31.8444 57.5375 31.5262 57.8522 31.1325 57.8522H29.353C29.1565 57.8522 28.997 58.0106 28.997 58.2042Z" fill="#1A0003"/>
<path d="M71.835 53.517H70.8389V45.8353H68.126V44.9506H74.5479V45.8353H71.835V53.517ZM81.2393 50.3002C81.2393 51.347 80.9756 52.1654 80.4482 52.7552C79.9209 53.3412 79.1924 53.6342 78.2627 53.6342C77.6885 53.6342 77.1787 53.4994 76.7334 53.2299C76.2881 52.9603 75.9443 52.5736 75.7021 52.0697C75.46 51.5658 75.3389 50.976 75.3389 50.3002C75.3389 49.2533 75.6006 48.4388 76.124 47.8568C76.6475 47.2709 77.374 46.9779 78.3037 46.9779C79.2021 46.9779 79.915 47.2767 80.4424 47.8744C80.9736 48.472 81.2393 49.2806 81.2393 50.3002ZM76.3467 50.3002C76.3467 51.1205 76.5107 51.7455 76.8389 52.1752C77.167 52.6049 77.6494 52.8197 78.2861 52.8197C78.9229 52.8197 79.4053 52.6068 79.7334 52.181C80.0654 51.7513 80.2314 51.1244 80.2314 50.3002C80.2314 49.4838 80.0654 48.8646 79.7334 48.4427C79.4053 48.017 78.9189 47.8041 78.2744 47.8041C77.6377 47.8041 77.1572 48.0131 76.833 48.431C76.5088 48.849 76.3467 49.472 76.3467 50.3002ZM85.0244 52.8314C85.1963 52.8314 85.3623 52.8197 85.5225 52.7963C85.6826 52.7689 85.8096 52.7416 85.9033 52.7142V53.4584C85.7979 53.5092 85.6416 53.5502 85.4346 53.5814C85.2314 53.6166 85.0479 53.6342 84.8838 53.6342C83.6416 53.6342 83.0205 52.9799 83.0205 51.6713V47.851H82.1006V47.3822L83.0205 46.9779L83.4307 45.6068H83.9932V47.0951H85.8564V47.851H83.9932V51.6302C83.9932 52.017 84.085 52.3138 84.2686 52.5209C84.4521 52.7279 84.7041 52.8314 85.0244 52.8314ZM91.1416 53.517L90.9482 52.6029H90.9014C90.5811 53.0052 90.2607 53.2787 89.9404 53.4232C89.624 53.5638 89.2275 53.6342 88.751 53.6342C88.1143 53.6342 87.6143 53.4701 87.251 53.142C86.8916 52.8138 86.7119 52.347 86.7119 51.7416C86.7119 50.4447 87.749 49.765 89.8232 49.7025L90.9131 49.6674V49.2689C90.9131 48.765 90.8037 48.3939 90.585 48.1556C90.3701 47.9135 90.0244 47.7924 89.5479 47.7924C89.0127 47.7924 88.4072 47.9564 87.7314 48.2845L87.4326 47.5404C87.749 47.3685 88.0947 47.2338 88.4697 47.1361C88.8486 47.0385 89.2275 46.9896 89.6064 46.9896C90.3721 46.9896 90.9385 47.1595 91.3057 47.4994C91.6768 47.8392 91.8623 48.3842 91.8623 49.1342V53.517H91.1416ZM88.9443 52.8314C89.5498 52.8314 90.0244 52.6654 90.3682 52.3334C90.7158 52.0013 90.8896 51.5365 90.8896 50.9388V50.3588L89.917 50.3998C89.1436 50.4271 88.585 50.5482 88.2412 50.7631C87.9014 50.974 87.7314 51.3041 87.7314 51.7533C87.7314 52.1049 87.8369 52.3724 88.0479 52.556C88.2627 52.7396 88.5615 52.8314 88.9443 52.8314ZM94.8447 53.517H93.8721V44.3998H94.8447V53.517ZM107.647 53.517H106.663L104.935 47.7806C104.853 47.5267 104.761 47.2064 104.659 46.8197C104.558 46.433 104.505 46.2006 104.501 46.1224C104.415 46.6381 104.278 47.2025 104.091 47.8158L102.415 53.517H101.431L99.1514 44.9506H100.206L101.56 50.2416C101.747 50.9838 101.884 51.6556 101.97 52.2572C102.075 51.5424 102.231 50.8431 102.438 50.1595L103.974 44.9506H105.028L106.64 50.2064C106.827 50.8119 106.985 51.4955 107.114 52.2572C107.188 51.7025 107.329 51.0267 107.536 50.2299L108.884 44.9506H109.938L107.647 53.517ZM112.106 53.517H111.134V47.0951H112.106V53.517ZM111.052 45.3549C111.052 45.1322 111.106 44.9701 111.216 44.8685C111.325 44.7631 111.462 44.7103 111.626 44.7103C111.782 44.7103 111.917 44.7631 112.03 44.8685C112.144 44.974 112.2 45.1361 112.2 45.3549C112.2 45.5736 112.144 45.7377 112.03 45.847C111.917 45.9525 111.782 46.0052 111.626 46.0052C111.462 46.0052 111.325 45.9525 111.216 45.847C111.106 45.7377 111.052 45.5736 111.052 45.3549ZM116.243 52.8314C116.415 52.8314 116.581 52.8197 116.741 52.7963C116.901 52.7689 117.028 52.7416 117.122 52.7142V53.4584C117.017 53.5092 116.86 53.5502 116.653 53.5814C116.45 53.6166 116.267 53.6342 116.103 53.6342C114.86 53.6342 114.239 52.9799 114.239 51.6713V47.851H113.319V47.3822L114.239 46.9779L114.649 45.6068H115.212V47.0951H117.075V47.851H115.212V51.6302C115.212 52.017 115.304 52.3138 115.487 52.5209C115.671 52.7279 115.923 52.8314 116.243 52.8314ZM122.806 53.517V49.3627C122.806 48.8392 122.687 48.4486 122.448 48.1908C122.21 47.933 121.837 47.8041 121.329 47.8041C120.653 47.8041 120.159 47.9877 119.847 48.3549C119.538 48.722 119.384 49.3236 119.384 50.1595V53.517H118.411V44.3998H119.384V47.1595C119.384 47.4916 119.368 47.767 119.337 47.9857H119.396C119.587 47.6771 119.858 47.4349 120.21 47.2592C120.565 47.0795 120.97 46.9896 121.423 46.9896C122.208 46.9896 122.796 47.1771 123.187 47.5521C123.581 47.9232 123.778 48.515 123.778 49.3275V53.517H122.806ZM130.153 52.6556H130.101C129.651 53.308 128.979 53.6342 128.085 53.6342C127.245 53.6342 126.591 53.347 126.122 52.7728C125.657 52.1986 125.425 51.3822 125.425 50.3236C125.425 49.265 125.659 48.4427 126.128 47.8568C126.597 47.2709 127.249 46.9779 128.085 46.9779C128.956 46.9779 129.624 47.2943 130.089 47.9271H130.165L130.124 47.4642L130.101 47.0131V44.3998H131.073V53.517H130.282L130.153 52.6556ZM128.208 52.8197C128.872 52.8197 129.353 52.64 129.649 52.2806C129.95 51.9174 130.101 51.3334 130.101 50.5287V50.3236C130.101 49.4135 129.948 48.765 129.644 48.3783C129.343 47.9877 128.86 47.7924 128.196 47.7924C127.626 47.7924 127.188 48.015 126.884 48.4603C126.583 48.9017 126.433 49.5267 126.433 50.3353C126.433 51.1556 126.583 51.7748 126.884 52.1927C127.185 52.6107 127.626 52.8197 128.208 52.8197ZM136.071 46.9779C136.356 46.9779 136.612 47.0013 136.839 47.0482L136.704 47.9506C136.438 47.892 136.204 47.8627 136.001 47.8627C135.481 47.8627 135.036 48.0736 134.665 48.4955C134.298 48.9174 134.114 49.4427 134.114 50.0717V53.517H133.142V47.0951H133.944L134.056 48.2845H134.103C134.341 47.8666 134.628 47.5443 134.964 47.3177C135.3 47.0912 135.669 46.9779 136.071 46.9779ZM141.989 53.517L141.796 52.6029H141.749C141.429 53.0052 141.108 53.2787 140.788 53.4232C140.472 53.5638 140.075 53.6342 139.599 53.6342C138.962 53.6342 138.462 53.4701 138.099 53.142C137.739 52.8138 137.56 52.347 137.56 51.7416C137.56 50.4447 138.597 49.765 140.671 49.7025L141.761 49.6674V49.2689C141.761 48.765 141.651 48.3939 141.433 48.1556C141.218 47.9135 140.872 47.7924 140.396 47.7924C139.86 47.7924 139.255 47.9564 138.579 48.2845L138.28 47.5404C138.597 47.3685 138.942 47.2338 139.317 47.1361C139.696 47.0385 140.075 46.9896 140.454 46.9896C141.22 46.9896 141.786 47.1595 142.153 47.4994C142.524 47.8392 142.71 48.3842 142.71 49.1342V53.517H141.989ZM139.792 52.8314C140.397 52.8314 140.872 52.6654 141.216 52.3334C141.563 52.0013 141.737 51.5365 141.737 50.9388V50.3588L140.765 50.3998C139.991 50.4271 139.433 50.5482 139.089 50.7631C138.749 50.974 138.579 51.3041 138.579 51.7533C138.579 52.1049 138.685 52.3724 138.896 52.556C139.11 52.7396 139.409 52.8314 139.792 52.8314ZM149.964 53.517L148.786 49.7494C148.712 49.5189 148.573 48.9955 148.37 48.1791H148.323C148.167 48.8627 148.03 49.39 147.913 49.7611L146.7 53.517H145.575L143.823 47.0951H144.843C145.257 48.7084 145.571 49.9369 145.786 50.7806C146.005 51.6244 146.13 52.1927 146.161 52.4857H146.208C146.251 52.2631 146.319 51.976 146.413 51.6244C146.511 51.2689 146.595 50.9877 146.665 50.7806L147.843 47.0951H148.897L150.046 50.7806C150.265 51.4525 150.413 52.017 150.491 52.474H150.538C150.554 52.3334 150.595 52.1166 150.661 51.8236C150.731 51.5306 151.14 49.9545 151.886 47.0951H152.894L151.118 53.517H149.964ZM158.009 53.517L157.815 52.6029H157.769C157.448 53.0052 157.128 53.2787 156.808 53.4232C156.491 53.5638 156.095 53.6342 155.618 53.6342C154.981 53.6342 154.481 53.4701 154.118 53.142C153.759 52.8138 153.579 52.347 153.579 51.7416C153.579 50.4447 154.616 49.765 156.69 49.7025L157.78 49.6674V49.2689C157.78 48.765 157.671 48.3939 157.452 48.1556C157.237 47.9135 156.892 47.7924 156.415 47.7924C155.88 47.7924 155.274 47.9564 154.599 48.2845L154.3 47.5404C154.616 47.3685 154.962 47.2338 155.337 47.1361C155.716 47.0385 156.095 46.9896 156.474 46.9896C157.239 46.9896 157.806 47.1595 158.173 47.4994C158.544 47.8392 158.729 48.3842 158.729 49.1342V53.517H158.009ZM155.812 52.8314C156.417 52.8314 156.892 52.6654 157.235 52.3334C157.583 52.0013 157.757 51.5365 157.757 50.9388V50.3588L156.784 50.3998C156.011 50.4271 155.452 50.5482 155.108 50.7631C154.769 50.974 154.599 51.3041 154.599 51.7533C154.599 52.1049 154.704 52.3724 154.915 52.556C155.13 52.7396 155.429 52.8314 155.812 52.8314ZM161.712 53.517H160.739V44.3998H161.712V53.517Z" fill="#00031A"/>
<path d="M81.0371 75.517H77.5742L71.9844 65.7963H71.9053C72.0166 67.5131 72.0723 68.7377 72.0723 69.4701V75.517H69.6377V62.6674H73.0742L78.6553 72.2914H78.7168C78.6289 70.6215 78.585 69.4408 78.585 68.7494V62.6674H81.0371V75.517ZM90.0986 75.517H87.3828V68.0814L87.4092 66.8597L87.4531 65.5238C87.002 65.975 86.6885 66.2709 86.5127 66.4115L85.0361 67.598L83.7266 65.9633L87.8662 62.6674H90.0986V75.517ZM102.579 69.0922C102.579 71.3363 102.21 72.9974 101.472 74.0756C100.739 75.1537 99.6084 75.6927 98.0791 75.6927C96.5967 75.6927 95.4775 75.1361 94.7217 74.0228C93.9717 72.9095 93.5967 71.266 93.5967 69.0922C93.5967 66.8246 93.9629 65.1547 94.6953 64.0824C95.4277 63.0043 96.5557 62.4652 98.0791 62.4652C99.5615 62.4652 100.681 63.0277 101.437 64.1527C102.198 65.2777 102.579 66.9242 102.579 69.0922ZM96.2949 69.0922C96.2949 70.6683 96.4297 71.7992 96.6992 72.4847C96.9746 73.1644 97.4346 73.5043 98.0791 73.5043C98.7119 73.5043 99.1689 73.1586 99.4502 72.4672C99.7314 71.7758 99.8721 70.6508 99.8721 69.0922C99.8721 67.516 99.7285 66.3851 99.4414 65.6996C99.1602 65.0082 98.7061 64.6625 98.0791 64.6625C97.4404 64.6625 96.9834 65.0082 96.708 65.6996C96.4326 66.3851 96.2949 67.516 96.2949 69.0922ZM107.264 73.6273C106.959 74.8109 106.443 76.2142 105.717 77.8373H103.783C104.164 76.2787 104.46 74.808 104.671 73.4252H107.132L107.264 73.6273ZM113.847 67.308C115.089 67.308 116.076 67.6566 116.809 68.3539C117.547 69.0511 117.916 70.0062 117.916 71.2191C117.916 72.6547 117.474 73.7592 116.589 74.5326C115.704 75.306 114.438 75.6927 112.792 75.6927C111.362 75.6927 110.208 75.4613 109.329 74.9984V72.6517C109.792 72.8978 110.331 73.1 110.946 73.2582C111.562 73.4105 112.145 73.4867 112.695 73.4867C114.354 73.4867 115.183 72.807 115.183 71.4476C115.183 70.1527 114.324 69.5052 112.607 69.5052C112.297 69.5052 111.954 69.5375 111.579 69.6019C111.204 69.6605 110.899 69.725 110.665 69.7953L109.584 69.2152L110.067 62.6674H117.037V64.9701H112.449L112.212 67.4926L112.52 67.431C112.877 67.349 113.319 67.308 113.847 67.308ZM128.384 68.1517C128.384 70.683 127.851 72.5726 126.784 73.8207C125.718 75.0687 124.104 75.6927 121.941 75.6927C121.18 75.6927 120.603 75.6517 120.21 75.5697V73.39C120.702 73.5131 121.218 73.5746 121.757 73.5746C122.665 73.5746 123.412 73.4427 123.998 73.1791C124.584 72.9095 125.032 72.4906 125.343 71.9222C125.653 71.348 125.832 70.5599 125.879 69.558H125.773C125.434 70.1088 125.041 70.4955 124.596 70.7181C124.15 70.9408 123.594 71.0521 122.926 71.0521C121.807 71.0521 120.925 70.6947 120.28 69.9799C119.636 69.2592 119.313 68.2601 119.313 66.9828C119.313 65.6058 119.703 64.5189 120.482 63.722C121.268 62.9193 122.334 62.5179 123.682 62.5179C124.631 62.5179 125.46 62.7406 126.169 63.1859C126.884 63.6312 127.432 64.2787 127.812 65.1283C128.193 65.972 128.384 66.9799 128.384 68.1517ZM123.734 64.6976C123.172 64.6976 122.732 64.891 122.416 65.2777C122.1 65.6644 121.941 66.2211 121.941 66.9476C121.941 67.5687 122.085 68.0609 122.372 68.4242C122.659 68.7875 123.096 68.9691 123.682 68.9691C124.232 68.9691 124.704 68.7904 125.097 68.433C125.489 68.0697 125.686 67.6537 125.686 67.1849C125.686 66.4877 125.501 65.8988 125.132 65.4183C124.769 64.9379 124.303 64.6976 123.734 64.6976ZM129.649 70.059C129.649 67.516 130.186 65.6234 131.258 64.3812C132.336 63.139 133.947 62.5179 136.092 62.5179C136.824 62.5179 137.398 62.5619 137.814 62.6498V64.8207C137.293 64.7035 136.777 64.6449 136.268 64.6449C135.336 64.6449 134.574 64.7855 133.982 65.0668C133.396 65.348 132.957 65.764 132.664 66.3148C132.371 66.8656 132.198 67.6478 132.146 68.6615H132.26C132.84 67.6654 133.769 67.1674 135.046 67.1674C136.194 67.1674 137.094 67.5277 137.744 68.2484C138.395 68.9691 138.72 69.9652 138.72 71.2367C138.72 72.6078 138.333 73.6947 137.56 74.4974C136.786 75.2943 135.714 75.6927 134.343 75.6927C133.394 75.6927 132.564 75.473 131.855 75.0336C131.152 74.5941 130.607 73.9525 130.221 73.1088C129.84 72.265 129.649 71.2484 129.649 70.059ZM134.29 73.5219C134.87 73.5219 135.315 73.3285 135.626 72.9418C135.937 72.5492 136.092 71.9926 136.092 71.2719C136.092 70.6449 135.945 70.1527 135.652 69.7953C135.365 69.432 134.929 69.2504 134.343 69.2504C133.792 69.2504 133.32 69.4291 132.928 69.7865C132.541 70.1439 132.348 70.5599 132.348 71.0345C132.348 71.7318 132.529 72.3207 132.893 72.8011C133.262 73.2816 133.728 73.5219 134.29 73.5219ZM140.328 74.2601C140.328 73.7679 140.46 73.3959 140.724 73.1439C140.987 72.892 141.371 72.766 141.875 72.766C142.361 72.766 142.736 72.8949 143 73.1527C143.27 73.4105 143.404 73.7797 143.404 74.2601C143.404 74.723 143.27 75.0892 143 75.3588C142.73 75.6224 142.355 75.7543 141.875 75.7543C141.383 75.7543 141.002 75.6254 140.732 75.3676C140.463 75.1039 140.328 74.7347 140.328 74.2601ZM149.583 62.5004C150.813 62.5004 151.804 62.7816 152.554 63.3441C153.31 63.9008 153.688 64.6537 153.688 65.6029C153.688 66.2592 153.506 66.8451 153.143 67.3607C152.779 67.8705 152.193 68.3275 151.385 68.7318C152.346 69.2474 153.034 69.7865 153.45 70.349C153.872 70.9056 154.083 71.5179 154.083 72.1859C154.083 73.2406 153.67 74.0902 152.844 74.7347C152.018 75.3734 150.931 75.6927 149.583 75.6927C148.177 75.6927 147.072 75.3939 146.27 74.7963C145.467 74.1986 145.065 73.3519 145.065 72.2562C145.065 71.5238 145.259 70.8734 145.646 70.3051C146.038 69.7367 146.665 69.2357 147.526 68.8021C146.794 68.3392 146.267 67.8441 145.944 67.3168C145.622 66.7894 145.461 66.2123 145.461 65.5853C145.461 64.6654 145.842 63.9213 146.604 63.3529C147.365 62.7845 148.358 62.5004 149.583 62.5004ZM147.579 72.098C147.579 72.6019 147.755 72.9945 148.106 73.2758C148.458 73.557 148.938 73.6976 149.548 73.6976C150.222 73.6976 150.726 73.5541 151.06 73.267C151.394 72.974 151.561 72.5902 151.561 72.1156C151.561 71.723 151.394 71.3568 151.06 71.017C150.731 70.6713 150.195 70.3051 149.451 69.9183C148.203 70.4926 147.579 71.2191 147.579 72.098ZM149.565 64.4867C149.103 64.4867 148.728 64.6068 148.44 64.847C148.159 65.0814 148.019 65.3978 148.019 65.7963C148.019 66.1478 148.13 66.4642 148.353 66.7455C148.581 67.0209 148.991 67.3051 149.583 67.598C150.157 67.3285 150.559 67.0531 150.787 66.7719C151.016 66.4906 151.13 66.1654 151.13 65.7963C151.13 65.392 150.983 65.0726 150.69 64.8383C150.397 64.6039 150.022 64.4867 149.565 64.4867ZM164.349 69.0922C164.349 71.3363 163.979 72.9974 163.241 74.0756C162.509 75.1537 161.378 75.6927 159.849 75.6927C158.366 75.6927 157.247 75.1361 156.491 74.0228C155.741 72.9095 155.366 71.266 155.366 69.0922C155.366 66.8246 155.732 65.1547 156.465 64.0824C157.197 63.0043 158.325 62.4652 159.849 62.4652C161.331 62.4652 162.45 63.0277 163.206 64.1527C163.968 65.2777 164.349 66.9242 164.349 69.0922ZM158.064 69.0922C158.064 70.6683 158.199 71.7992 158.469 72.4847C158.744 73.1644 159.204 73.5043 159.849 73.5043C160.481 73.5043 160.938 73.1586 161.22 72.4672C161.501 71.7758 161.642 70.6508 161.642 69.0922C161.642 67.516 161.498 66.3851 161.211 65.6996C160.93 65.0082 160.476 64.6625 159.849 64.6625C159.21 64.6625 158.753 65.0082 158.478 65.6996C158.202 66.3851 158.064 67.516 158.064 69.0922Z" fill="#00031A"/>
<rect x="974.105" y="0.516968" width="150.506" height="65" rx="13" fill="white"/>
<rect opacity="0.8" x="984.105" y="10.517" width="45.5058" height="45" rx="7.89474" fill="#ADEBF3"/>
<path fill-rule="evenodd" clip-rule="evenodd" d="M1013.69 33.4958L1011.43 31.4664L1008.39 39.4292L1013.69 33.4958ZM1008.28 35.7166L1010.46 30.0197C1010.46 30.0183 1010.46 30.0169 1010.46 30.0155L1011.01 28.5682L1008.28 27.5243V35.7166ZM1007.03 39.0033H1002.84L1006.5 40.4006L1007.03 39.0033ZM1006.25 41.8176L1002.35 40.3231L1005.26 42.9305L1006.25 41.8176ZM999.74 37.5954H1006.86V24.9248H999.74V37.5954ZM1015.22 33.9069L1005.85 44.3968C1005.72 44.5383 1005.54 44.6234 1005.35 44.6333C1005.34 44.634 1005.33 44.6347 1005.31 44.6347C1005.14 44.6347 1004.97 44.57 1004.84 44.4524L998.551 38.8196C998.548 38.8175 998.547 38.814 998.543 38.8111C998.54 38.8076 998.535 38.8055 998.532 38.802C998.49 38.7612 998.463 38.7105 998.432 38.6612C998.416 38.6359 998.393 38.614 998.381 38.588C998.38 38.5845 998.378 38.5831 998.377 38.5803C998.361 38.5458 998.361 38.5056 998.351 38.469C998.35 38.4648 998.349 38.4599 998.348 38.455C998.338 38.4113 998.32 38.3705 998.319 38.3261C998.318 38.3205 998.319 38.3149 998.319 38.3092C998.319 38.3057 998.316 38.3029 998.316 38.2994V24.2209C998.316 23.8316 998.635 23.517 999.028 23.517H1007.57C1007.96 23.517 1008.28 23.8316 1008.28 24.2209V26.0145L1012.18 27.5068C1012.55 27.6462 1012.73 28.0509 1012.59 28.4121L1011.97 30.0501L1015.17 32.9193C1015.46 33.1783 1015.48 33.6183 1015.22 33.9069ZM1002.59 30.2042C1002.59 30.3984 1002.75 30.5561 1002.94 30.5561H1003.66C1004.64 30.5561 1005.44 31.3452 1005.44 32.3159C1005.44 33.1663 1004.82 33.8765 1004.01 34.0398V34.7797C1004.01 35.1689 1003.69 35.4836 1003.3 35.4836C1002.91 35.4836 1002.59 35.1689 1002.59 34.7797V34.0757H1001.88C1001.48 34.0757 1001.16 33.7611 1001.16 33.3718C1001.16 32.9826 1001.48 32.6679 1001.88 32.6679H1003.66C1003.85 32.6679 1004.01 32.5102 1004.01 32.3159C1004.01 32.1224 1003.85 31.964 1003.66 31.964H1002.94C1001.96 31.964 1001.16 31.1749 1001.16 30.2042C1001.16 29.3538 1001.78 28.6436 1002.59 28.4802V27.7404C1002.59 27.3512 1002.91 27.0365 1003.3 27.0365C1003.69 27.0365 1004.01 27.3512 1004.01 27.7404V28.4443H1004.72C1005.12 28.4443 1005.44 28.759 1005.44 29.1483C1005.44 29.5375 1005.12 29.8522 1004.72 29.8522H1002.94C1002.75 29.8522 1002.59 30.0106 1002.59 30.2042Z" fill="#00031A"/>
<path d="M1045.43 25.517H1044.43V17.8353H1041.72V16.9506H1048.14V17.8353H1045.43V25.517ZM1054.83 22.3002C1054.83 23.347 1054.57 24.1654 1054.04 24.7552C1053.51 25.3412 1052.78 25.6342 1051.85 25.6342C1051.28 25.6342 1050.77 25.4994 1050.32 25.2299C1049.88 24.9603 1049.54 24.5736 1049.29 24.0697C1049.05 23.5658 1048.93 22.976 1048.93 22.3002C1048.93 21.2533 1049.19 20.4388 1049.71 19.8568C1050.24 19.2709 1050.96 18.9779 1051.89 18.9779C1052.79 18.9779 1053.51 19.2767 1054.03 19.8744C1054.56 20.472 1054.83 21.2806 1054.83 22.3002ZM1049.94 22.3002C1049.94 23.1205 1050.1 23.7455 1050.43 24.1752C1050.76 24.6049 1051.24 24.8197 1051.88 24.8197C1052.51 24.8197 1053 24.6068 1053.32 24.181C1053.66 23.7513 1053.82 23.1244 1053.82 22.3002C1053.82 21.4838 1053.66 20.8646 1053.32 20.4427C1053 20.017 1052.51 19.8041 1051.87 19.8041C1051.23 19.8041 1050.75 20.0131 1050.42 20.431C1050.1 20.849 1049.94 21.472 1049.94 22.3002ZM1058.62 24.8314C1058.79 24.8314 1058.95 24.8197 1059.11 24.7963C1059.27 24.7689 1059.4 24.7416 1059.49 24.7142V25.4584C1059.39 25.5092 1059.23 25.5502 1059.03 25.5814C1058.82 25.6166 1058.64 25.6342 1058.47 25.6342C1057.23 25.6342 1056.61 24.9799 1056.61 23.6713V19.851H1055.69V19.3822L1056.61 18.9779L1057.02 17.6068H1057.58V19.0951H1059.45V19.851H1057.58V23.6302C1057.58 24.017 1057.68 24.3138 1057.86 24.5209C1058.04 24.7279 1058.29 24.8314 1058.62 24.8314ZM1064.73 25.517L1064.54 24.6029H1064.49C1064.17 25.0052 1063.85 25.2787 1063.53 25.4232C1063.21 25.5638 1062.82 25.6342 1062.34 25.6342C1061.7 25.6342 1061.2 25.4701 1060.84 25.142C1060.48 24.8138 1060.3 24.347 1060.3 23.7416C1060.3 22.4447 1061.34 21.765 1063.41 21.7025L1064.5 21.6674V21.2689C1064.5 20.765 1064.39 20.3939 1064.18 20.1556C1063.96 19.9135 1063.62 19.7924 1063.14 19.7924C1062.6 19.7924 1062 19.9564 1061.32 20.2845L1061.02 19.5404C1061.34 19.3685 1061.69 19.2338 1062.06 19.1361C1062.44 19.0385 1062.82 18.9896 1063.2 18.9896C1063.96 18.9896 1064.53 19.1595 1064.9 19.4994C1065.27 19.8392 1065.45 20.3842 1065.45 21.1342V25.517H1064.73ZM1062.54 24.8314C1063.14 24.8314 1063.62 24.6654 1063.96 24.3334C1064.31 24.0013 1064.48 23.5365 1064.48 22.9388V22.3588L1063.51 22.3998C1062.73 22.4271 1062.18 22.5482 1061.83 22.7631C1061.49 22.974 1061.32 23.3041 1061.32 23.7533C1061.32 24.1049 1061.43 24.3724 1061.64 24.556C1061.85 24.7396 1062.15 24.8314 1062.54 24.8314ZM1068.44 25.517H1067.46V16.3998H1068.44V25.517ZM1077.99 24.6556H1077.93C1077.48 25.308 1076.81 25.6342 1075.92 25.6342C1075.08 25.6342 1074.42 25.347 1073.95 24.7728C1073.49 24.1986 1073.26 23.3822 1073.26 22.3236C1073.26 21.265 1073.49 20.4427 1073.96 19.8568C1074.43 19.2709 1075.08 18.9779 1075.92 18.9779C1076.79 18.9779 1077.46 19.2943 1077.92 19.9271H1078L1077.96 19.4642L1077.93 19.0131V16.3998H1078.91V25.517H1078.12L1077.99 24.6556ZM1076.04 24.8197C1076.7 24.8197 1077.19 24.64 1077.48 24.2806C1077.78 23.9174 1077.93 23.3334 1077.93 22.5287V22.3236C1077.93 21.4135 1077.78 20.765 1077.48 20.3783C1077.18 19.9877 1076.69 19.7924 1076.03 19.7924C1075.46 19.7924 1075.02 20.015 1074.72 20.4603C1074.42 20.9017 1074.27 21.5267 1074.27 22.3353C1074.27 23.1556 1074.42 23.7748 1074.72 24.1927C1075.02 24.6107 1075.46 24.8197 1076.04 24.8197ZM1083.69 25.6342C1082.74 25.6342 1081.99 25.3451 1081.44 24.767C1080.89 24.1888 1080.62 23.3861 1080.62 22.3588C1080.62 21.3236 1080.87 20.5013 1081.38 19.892C1081.89 19.2826 1082.58 18.9779 1083.44 18.9779C1084.24 18.9779 1084.88 19.2435 1085.35 19.7748C1085.81 20.3021 1086.05 20.9994 1086.05 21.8666V22.4818H1081.62C1081.64 23.2357 1081.83 23.808 1082.19 24.1986C1082.56 24.5892 1083.07 24.7845 1083.72 24.7845C1084.41 24.7845 1085.1 24.64 1085.77 24.351V25.2181C1085.43 25.3666 1085.1 25.472 1084.79 25.5345C1084.49 25.601 1084.12 25.6342 1083.69 25.6342ZM1083.42 19.7924C1082.91 19.7924 1082.5 19.9603 1082.19 20.2963C1081.88 20.6322 1081.7 21.097 1081.65 21.6908H1085.01C1085.01 21.0775 1084.87 20.6088 1084.6 20.2845C1084.32 19.9564 1083.93 19.7924 1083.42 19.7924ZM1090.7 25.6342C1090.28 25.6342 1089.9 25.558 1089.55 25.4056C1089.21 25.2494 1088.92 25.0111 1088.69 24.6908H1088.62C1088.66 25.0658 1088.69 25.4213 1088.69 25.7572V28.3998H1087.71V19.0951H1088.5L1088.64 19.974H1088.69C1088.94 19.6224 1089.23 19.3685 1089.56 19.2123C1089.89 19.056 1090.27 18.9779 1090.7 18.9779C1091.55 18.9779 1092.21 19.2689 1092.67 19.851C1093.13 20.433 1093.37 21.2494 1093.37 22.3002C1093.37 23.3549 1093.13 24.1752 1092.66 24.7611C1092.19 25.3431 1091.54 25.6342 1090.7 25.6342ZM1090.56 19.8041C1089.9 19.8041 1089.43 19.9857 1089.14 20.349C1088.84 20.7123 1088.69 21.2904 1088.69 22.0834V22.3002C1088.69 23.2025 1088.84 23.849 1089.14 24.2396C1089.44 24.6263 1089.92 24.8197 1090.58 24.8197C1091.14 24.8197 1091.57 24.5951 1091.88 24.1459C1092.2 23.6967 1092.36 23.0775 1092.36 22.2885C1092.36 21.4877 1092.2 20.8744 1091.88 20.4486C1091.57 20.0189 1091.13 19.8041 1090.56 19.8041ZM1100.62 22.3002C1100.62 23.347 1100.35 24.1654 1099.82 24.7552C1099.3 25.3412 1098.57 25.6342 1097.64 25.6342C1097.06 25.6342 1096.55 25.4994 1096.11 25.2299C1095.66 24.9603 1095.32 24.5736 1095.08 24.0697C1094.84 23.5658 1094.71 22.976 1094.71 22.3002C1094.71 21.2533 1094.98 20.4388 1095.5 19.8568C1096.02 19.2709 1096.75 18.9779 1097.68 18.9779C1098.58 18.9779 1099.29 19.2767 1099.82 19.8744C1100.35 20.472 1100.62 21.2806 1100.62 22.3002ZM1095.72 22.3002C1095.72 23.1205 1095.89 23.7455 1096.21 24.1752C1096.54 24.6049 1097.03 24.8197 1097.66 24.8197C1098.3 24.8197 1098.78 24.6068 1099.11 24.181C1099.44 23.7513 1099.61 23.1244 1099.61 22.3002C1099.61 21.4838 1099.44 20.8646 1099.11 20.4427C1098.78 20.017 1098.29 19.8041 1097.65 19.8041C1097.01 19.8041 1096.53 20.0131 1096.21 20.431C1095.88 20.849 1095.72 21.472 1095.72 22.3002ZM1106.47 23.765C1106.47 24.3627 1106.25 24.8236 1105.8 25.1478C1105.36 25.472 1104.73 25.6342 1103.93 25.6342C1103.07 25.6342 1102.41 25.4994 1101.93 25.2299V24.3275C1102.24 24.4838 1102.57 24.6068 1102.92 24.6967C1103.28 24.7865 1103.62 24.8314 1103.95 24.8314C1104.46 24.8314 1104.85 24.7513 1105.12 24.5912C1105.39 24.4271 1105.53 24.1791 1105.53 23.847C1105.53 23.597 1105.42 23.3842 1105.2 23.2084C1104.99 23.0287 1104.57 22.8177 1103.94 22.5756C1103.34 22.3529 1102.91 22.1595 1102.66 21.9955C1102.41 21.8275 1102.22 21.6381 1102.1 21.4271C1101.98 21.2162 1101.92 20.9642 1101.92 20.6713C1101.92 20.1478 1102.13 19.7357 1102.55 19.4349C1102.98 19.1302 1103.56 18.9779 1104.31 18.9779C1105 18.9779 1105.67 19.1185 1106.33 19.3998L1105.99 20.1908C1105.34 19.9252 1104.76 19.7924 1104.24 19.7924C1103.78 19.7924 1103.43 19.8646 1103.19 20.0092C1102.96 20.1537 1102.84 20.3529 1102.84 20.6068C1102.84 20.7787 1102.88 20.9252 1102.97 21.0463C1103.06 21.1674 1103.2 21.2826 1103.4 21.392C1103.59 21.5013 1103.97 21.6595 1104.52 21.8666C1105.29 22.1439 1105.8 22.4232 1106.06 22.7045C1106.33 22.9857 1106.47 23.3392 1106.47 23.765ZM1109.03 25.517H1108.06V19.0951H1109.03V25.517ZM1107.97 17.3549C1107.97 17.1322 1108.03 16.9701 1108.14 16.8685C1108.25 16.7631 1108.38 16.7103 1108.55 16.7103C1108.7 16.7103 1108.84 16.7631 1108.95 16.8685C1109.07 16.974 1109.12 17.1361 1109.12 17.3549C1109.12 17.5736 1109.07 17.7377 1108.95 17.847C1108.84 17.9525 1108.7 18.0052 1108.55 18.0052C1108.38 18.0052 1108.25 17.9525 1108.14 17.847C1108.03 17.7377 1107.97 17.5736 1107.97 17.3549ZM1113.17 24.8314C1113.34 24.8314 1113.5 24.8197 1113.66 24.7963C1113.82 24.7689 1113.95 24.7416 1114.04 24.7142V25.4584C1113.94 25.5092 1113.78 25.5502 1113.58 25.5814C1113.37 25.6166 1113.19 25.6342 1113.03 25.6342C1111.78 25.6342 1111.16 24.9799 1111.16 23.6713V19.851H1110.24V19.3822L1111.16 18.9779L1111.57 17.6068H1112.13V19.0951H1114V19.851H1112.13V23.6302C1112.13 24.017 1112.23 24.3138 1112.41 24.5209C1112.59 24.7279 1112.85 24.8314 1113.17 24.8314Z" fill="#00031A"/>
<path d="M1051.21 43.5004C1051.21 44.432 1050.87 45.182 1050.2 45.7504C1049.52 46.3129 1048.58 46.6498 1047.37 46.7611V48.5629H1046.16V46.7963C1044.73 46.767 1043.48 46.515 1042.4 46.0404V43.7201C1042.91 43.972 1043.52 44.1947 1044.24 44.3881C1044.96 44.5814 1045.6 44.6957 1046.16 44.7308V42.0062L1045.58 41.7777C1044.41 41.3207 1043.59 40.8256 1043.11 40.2924C1042.62 39.7533 1042.38 39.0883 1042.38 38.2972C1042.38 37.4476 1042.72 36.7504 1043.38 36.2054C1044.05 35.6547 1044.97 35.3207 1046.16 35.2035V33.8588H1047.37V35.1683C1048.71 35.2269 1049.92 35.4965 1051.01 35.9769L1050.18 38.0336C1049.27 37.6586 1048.33 37.4301 1047.37 37.348V39.9408C1048.51 40.3802 1049.32 40.7611 1049.8 41.0834C1050.29 41.4056 1050.64 41.7601 1050.87 42.1469C1051.09 42.5336 1051.21 42.9847 1051.21 43.5004ZM1048.56 43.6322C1048.56 43.3861 1048.46 43.1781 1048.26 43.0082C1048.07 42.8383 1047.77 42.6625 1047.37 42.4808V44.6693C1048.16 44.5345 1048.56 44.1888 1048.56 43.6322ZM1045.03 38.2972C1045.03 38.5551 1045.12 38.7689 1045.29 38.9388C1045.48 39.1029 1045.77 39.2728 1046.16 39.4486V37.3832C1045.41 37.4945 1045.03 37.7992 1045.03 38.2972ZM1057.29 39.308C1058.53 39.308 1059.52 39.6566 1060.25 40.3539C1060.99 41.0511 1061.36 42.0062 1061.36 43.2191C1061.36 44.6547 1060.92 45.7592 1060.03 46.5326C1059.15 47.306 1057.88 47.6927 1056.24 47.6927C1054.81 47.6927 1053.65 47.4613 1052.77 46.9984V44.6517C1053.24 44.8978 1053.78 45.1 1054.39 45.2582C1055.01 45.4105 1055.59 45.4867 1056.14 45.4867C1057.8 45.4867 1058.63 44.807 1058.63 43.4476C1058.63 42.1527 1057.77 41.5052 1056.05 41.5052C1055.74 41.5052 1055.4 41.5375 1055.02 41.6019C1054.65 41.6605 1054.34 41.725 1054.11 41.7953L1053.03 41.2152L1053.51 34.6674H1060.48V36.9701H1055.89L1055.66 39.4926L1055.96 39.431C1056.32 39.349 1056.76 39.308 1057.29 39.308ZM1071.81 41.0922C1071.81 43.3363 1071.44 44.9974 1070.7 46.0756C1069.97 47.1537 1068.84 47.6927 1067.31 47.6927C1065.83 47.6927 1064.71 47.1361 1063.95 46.0228C1063.2 44.9095 1062.83 43.266 1062.83 41.0922C1062.83 38.8246 1063.19 37.1547 1063.93 36.0824C1064.66 35.0043 1065.79 34.4652 1067.31 34.4652C1068.79 34.4652 1069.91 35.0277 1070.67 36.1527C1071.43 37.2777 1071.81 38.9242 1071.81 41.0922ZM1065.53 41.0922C1065.53 42.6683 1065.66 43.7992 1065.93 44.4847C1066.21 45.1644 1066.67 45.5043 1067.31 45.5043C1067.94 45.5043 1068.4 45.1586 1068.68 44.4672C1068.96 43.7758 1069.1 42.6508 1069.1 41.0922C1069.1 39.516 1068.96 38.3851 1068.67 37.6996C1068.39 37.0082 1067.94 36.6625 1067.31 36.6625C1066.67 36.6625 1066.21 37.0082 1065.94 37.6996C1065.66 38.3851 1065.53 39.516 1065.53 41.0922ZM1082.09 41.0922C1082.09 43.3363 1081.72 44.9974 1080.99 46.0756C1080.25 47.1537 1079.12 47.6927 1077.59 47.6927C1076.11 47.6927 1074.99 47.1361 1074.24 46.0228C1073.49 44.9095 1073.11 43.266 1073.11 41.0922C1073.11 38.8246 1073.48 37.1547 1074.21 36.0824C1074.94 35.0043 1076.07 34.4652 1077.59 34.4652C1079.08 34.4652 1080.2 35.0277 1080.95 36.1527C1081.71 37.2777 1082.09 38.9242 1082.09 41.0922ZM1075.81 41.0922C1075.81 42.6683 1075.94 43.7992 1076.21 44.4847C1076.49 45.1644 1076.95 45.5043 1077.59 45.5043C1078.23 45.5043 1078.68 45.1586 1078.96 44.4672C1079.25 43.7758 1079.39 42.6508 1079.39 41.0922C1079.39 39.516 1079.24 38.3851 1078.96 37.6996C1078.67 37.0082 1078.22 36.6625 1077.59 36.6625C1076.95 36.6625 1076.5 37.0082 1076.22 37.6996C1075.95 38.3851 1075.81 39.516 1075.81 41.0922Z" fill="#00031A"/>
<rect x="124.515" y="171.253" width="150.506" height="65" rx="13" fill="white"/>
<rect x="134.515" y="181.253" width="45.5058" height="45" rx="7.89474" fill="#FF99A3"/>
<path fill-rule="evenodd" clip-rule="evenodd" d="M164.099 204.232L161.835 202.203L158.797 210.166L164.099 204.232ZM158.692 206.453L160.866 200.756C160.866 200.755 160.867 200.753 160.868 200.752L161.42 199.305L158.692 198.261V206.453ZM157.438 209.74H153.254L156.905 211.137L157.438 209.74ZM156.662 212.554L152.758 211.06L155.668 213.667L156.662 212.554ZM150.15 208.332H157.268V195.661H150.15V208.332ZM165.632 204.643L156.257 215.133C156.131 215.275 155.953 215.36 155.763 215.37C155.75 215.37 155.737 215.371 155.723 215.371C155.547 215.371 155.376 215.306 155.245 215.189L148.96 209.556C148.957 209.554 148.956 209.55 148.953 209.548C148.949 209.544 148.944 209.542 148.941 209.538C148.899 209.498 148.872 209.447 148.841 209.398C148.825 209.372 148.803 209.35 148.79 209.324C148.789 209.321 148.787 209.32 148.786 209.317C148.771 209.282 148.77 209.242 148.761 209.205C148.759 209.201 148.758 209.196 148.757 209.191C148.747 209.148 148.729 209.107 148.728 209.063C148.727 209.057 148.728 209.051 148.728 209.046C148.728 209.042 148.726 209.039 148.726 209.036V194.957C148.726 194.568 149.045 194.253 149.438 194.253H157.98C158.373 194.253 158.691 194.568 158.691 194.957V196.751L162.592 198.243C162.957 198.383 163.139 198.787 163.001 199.149L162.376 200.787L165.576 203.656C165.865 203.915 165.89 204.355 165.632 204.643ZM152.997 200.941C152.997 201.135 153.156 201.293 153.353 201.293H154.065C155.046 201.293 155.844 202.082 155.844 203.052C155.844 203.903 155.232 204.613 154.421 204.776V205.516C154.421 205.905 154.103 206.22 153.709 206.22C153.316 206.22 152.997 205.905 152.997 205.516V204.812H152.285C151.892 204.812 151.573 204.498 151.573 204.108C151.573 203.719 151.892 203.404 152.285 203.404H154.066C154.261 203.404 154.421 203.247 154.421 203.052C154.421 202.859 154.261 202.7 154.065 202.7H153.353C152.372 202.7 151.573 201.911 151.573 200.941C151.573 200.09 152.186 199.38 152.997 199.217V198.477C152.997 198.088 153.316 197.773 153.709 197.773C154.103 197.773 154.421 198.088 154.421 198.477V199.181H155.133C155.526 199.181 155.844 199.495 155.844 199.885C155.844 200.274 155.526 200.589 155.133 200.589H153.353C153.156 200.589 152.997 200.747 152.997 200.941Z" fill="#00031A"/>
<path d="M195.835 196.253H194.839V188.572H192.126V187.687H198.548V188.572H195.835V196.253ZM205.239 193.037C205.239 194.083 204.976 194.902 204.448 195.492C203.921 196.078 203.192 196.371 202.263 196.371C201.689 196.371 201.179 196.236 200.733 195.966C200.288 195.697 199.944 195.31 199.702 194.806C199.46 194.302 199.339 193.712 199.339 193.037C199.339 191.99 199.601 191.175 200.124 190.593C200.647 190.007 201.374 189.714 202.304 189.714C203.202 189.714 203.915 190.013 204.442 190.611C204.974 191.208 205.239 192.017 205.239 193.037ZM200.347 193.037C200.347 193.857 200.511 194.482 200.839 194.912C201.167 195.341 201.649 195.556 202.286 195.556C202.923 195.556 203.405 195.343 203.733 194.917C204.065 194.488 204.231 193.861 204.231 193.037C204.231 192.22 204.065 191.601 203.733 191.179C203.405 190.753 202.919 190.541 202.274 190.541C201.638 190.541 201.157 190.75 200.833 191.167C200.509 191.585 200.347 192.208 200.347 193.037ZM209.024 195.568C209.196 195.568 209.362 195.556 209.522 195.533C209.683 195.505 209.81 195.478 209.903 195.451V196.195C209.798 196.246 209.642 196.287 209.435 196.318C209.231 196.353 209.048 196.371 208.884 196.371C207.642 196.371 207.021 195.716 207.021 194.408V190.587H206.101V190.119L207.021 189.714L207.431 188.343H207.993V189.832H209.856V190.587H207.993V194.367C207.993 194.753 208.085 195.05 208.269 195.257C208.452 195.464 208.704 195.568 209.024 195.568ZM215.142 196.253L214.948 195.339H214.901C214.581 195.742 214.261 196.015 213.94 196.16C213.624 196.3 213.228 196.371 212.751 196.371C212.114 196.371 211.614 196.207 211.251 195.878C210.892 195.55 210.712 195.083 210.712 194.478C210.712 193.181 211.749 192.501 213.823 192.439L214.913 192.404V192.005C214.913 191.501 214.804 191.13 214.585 190.892C214.37 190.65 214.024 190.529 213.548 190.529C213.013 190.529 212.407 190.693 211.731 191.021L211.433 190.277C211.749 190.105 212.095 189.97 212.47 189.873C212.849 189.775 213.228 189.726 213.606 189.726C214.372 189.726 214.939 189.896 215.306 190.236C215.677 190.576 215.862 191.121 215.862 191.871V196.253H215.142ZM212.944 195.568C213.55 195.568 214.024 195.402 214.368 195.07C214.716 194.738 214.89 194.273 214.89 193.675V193.095L213.917 193.136C213.144 193.164 212.585 193.285 212.241 193.5C211.901 193.71 211.731 194.041 211.731 194.49C211.731 194.841 211.837 195.109 212.048 195.292C212.263 195.476 212.562 195.568 212.944 195.568ZM218.845 196.253H217.872V187.136H218.845V196.253ZM228.396 195.392H228.343C227.894 196.044 227.222 196.371 226.327 196.371C225.487 196.371 224.833 196.083 224.364 195.509C223.899 194.935 223.667 194.119 223.667 193.06C223.667 192.001 223.901 191.179 224.37 190.593C224.839 190.007 225.491 189.714 226.327 189.714C227.198 189.714 227.866 190.031 228.331 190.664H228.407L228.366 190.201L228.343 189.75V187.136H229.315V196.253H228.524L228.396 195.392ZM226.45 195.556C227.114 195.556 227.595 195.376 227.892 195.017C228.192 194.654 228.343 194.07 228.343 193.265V193.06C228.343 192.15 228.19 191.501 227.886 191.115C227.585 190.724 227.103 190.529 226.439 190.529C225.868 190.529 225.431 190.751 225.126 191.197C224.825 191.638 224.675 192.263 224.675 193.072C224.675 193.892 224.825 194.511 225.126 194.929C225.427 195.347 225.868 195.556 226.45 195.556ZM234.097 196.371C233.147 196.371 232.397 196.082 231.847 195.503C231.3 194.925 231.026 194.123 231.026 193.095C231.026 192.06 231.28 191.238 231.788 190.628C232.3 190.019 232.985 189.714 233.845 189.714C234.649 189.714 235.286 189.98 235.755 190.511C236.224 191.039 236.458 191.736 236.458 192.603V193.218H232.034C232.054 193.972 232.243 194.544 232.603 194.935C232.966 195.326 233.476 195.521 234.132 195.521C234.823 195.521 235.507 195.376 236.183 195.087V195.955C235.839 196.103 235.513 196.208 235.204 196.271C234.899 196.337 234.53 196.371 234.097 196.371ZM233.833 190.529C233.317 190.529 232.905 190.697 232.597 191.033C232.292 191.369 232.112 191.833 232.058 192.427H235.415C235.415 191.814 235.278 191.345 235.005 191.021C234.731 190.693 234.341 190.529 233.833 190.529ZM241.11 196.371C240.692 196.371 240.31 196.294 239.962 196.142C239.618 195.986 239.329 195.748 239.095 195.427H239.024C239.071 195.802 239.095 196.158 239.095 196.494V199.136H238.122V189.832H238.913L239.048 190.71H239.095C239.345 190.359 239.636 190.105 239.968 189.949C240.3 189.792 240.681 189.714 241.11 189.714C241.962 189.714 242.618 190.005 243.079 190.587C243.544 191.169 243.776 191.986 243.776 193.037C243.776 194.091 243.54 194.912 243.067 195.498C242.599 196.08 241.946 196.371 241.11 196.371ZM240.97 190.541C240.314 190.541 239.839 190.722 239.546 191.085C239.253 191.449 239.103 192.027 239.095 192.82V193.037C239.095 193.939 239.245 194.585 239.546 194.976C239.847 195.363 240.329 195.556 240.993 195.556C241.548 195.556 241.981 195.332 242.294 194.882C242.61 194.433 242.769 193.814 242.769 193.025C242.769 192.224 242.61 191.611 242.294 191.185C241.981 190.755 241.54 190.541 240.97 190.541ZM251.024 193.037C251.024 194.083 250.761 194.902 250.233 195.492C249.706 196.078 248.978 196.371 248.048 196.371C247.474 196.371 246.964 196.236 246.519 195.966C246.073 195.697 245.73 195.31 245.487 194.806C245.245 194.302 245.124 193.712 245.124 193.037C245.124 191.99 245.386 191.175 245.909 190.593C246.433 190.007 247.159 189.714 248.089 189.714C248.987 189.714 249.7 190.013 250.228 190.611C250.759 191.208 251.024 192.017 251.024 193.037ZM246.132 193.037C246.132 193.857 246.296 194.482 246.624 194.912C246.952 195.341 247.435 195.556 248.071 195.556C248.708 195.556 249.19 195.343 249.519 194.917C249.851 194.488 250.017 193.861 250.017 193.037C250.017 192.22 249.851 191.601 249.519 191.179C249.19 190.753 248.704 190.541 248.06 190.541C247.423 190.541 246.942 190.75 246.618 191.167C246.294 191.585 246.132 192.208 246.132 193.037ZM256.878 194.501C256.878 195.099 256.655 195.56 256.21 195.884C255.765 196.208 255.14 196.371 254.335 196.371C253.483 196.371 252.819 196.236 252.343 195.966V195.064C252.651 195.22 252.981 195.343 253.333 195.433C253.689 195.523 254.03 195.568 254.358 195.568C254.866 195.568 255.257 195.488 255.53 195.328C255.804 195.164 255.94 194.916 255.94 194.583C255.94 194.333 255.831 194.121 255.612 193.945C255.397 193.765 254.976 193.554 254.347 193.312C253.749 193.089 253.323 192.896 253.069 192.732C252.819 192.564 252.632 192.375 252.507 192.164C252.386 191.953 252.325 191.701 252.325 191.408C252.325 190.884 252.538 190.472 252.964 190.171C253.39 189.867 253.974 189.714 254.716 189.714C255.407 189.714 256.083 189.855 256.743 190.136L256.397 190.927C255.753 190.662 255.169 190.529 254.646 190.529C254.185 190.529 253.837 190.601 253.603 190.746C253.368 190.89 253.251 191.089 253.251 191.343C253.251 191.515 253.294 191.662 253.38 191.783C253.47 191.904 253.612 192.019 253.808 192.128C254.003 192.238 254.378 192.396 254.933 192.603C255.694 192.88 256.208 193.16 256.474 193.441C256.743 193.722 256.878 194.076 256.878 194.501ZM259.439 196.253H258.466V189.832H259.439V196.253ZM258.384 188.091C258.384 187.869 258.439 187.707 258.548 187.605C258.657 187.5 258.794 187.447 258.958 187.447C259.114 187.447 259.249 187.5 259.362 187.605C259.476 187.71 259.532 187.873 259.532 188.091C259.532 188.31 259.476 188.474 259.362 188.583C259.249 188.689 259.114 188.742 258.958 188.742C258.794 188.742 258.657 188.689 258.548 188.583C258.439 188.474 258.384 188.31 258.384 188.091ZM263.575 195.568C263.747 195.568 263.913 195.556 264.073 195.533C264.233 195.505 264.36 195.478 264.454 195.451V196.195C264.349 196.246 264.192 196.287 263.985 196.318C263.782 196.353 263.599 196.371 263.435 196.371C262.192 196.371 261.571 195.716 261.571 194.408V190.587H260.651V190.119L261.571 189.714L261.981 188.343H262.544V189.832H264.407V190.587H262.544V194.367C262.544 194.753 262.636 195.05 262.819 195.257C263.003 195.464 263.255 195.568 263.575 195.568Z" fill="#00031A"/>
<path d="M201.618 214.237C201.618 215.168 201.281 215.918 200.607 216.487C199.934 217.049 198.99 217.386 197.777 217.498V219.299H196.573V217.533C195.144 217.503 193.89 217.251 192.812 216.777V214.457C193.321 214.708 193.934 214.931 194.648 215.125C195.369 215.318 196.011 215.432 196.573 215.467V212.743L195.984 212.514C194.824 212.057 194.001 211.562 193.515 211.029C193.034 210.49 192.794 209.825 192.794 209.034C192.794 208.184 193.125 207.487 193.787 206.942C194.455 206.391 195.384 206.057 196.573 205.94V204.595H197.777V205.905C199.119 205.963 200.332 206.233 201.416 206.713L200.59 208.77C199.676 208.395 198.738 208.167 197.777 208.084V210.677C198.92 211.117 199.731 211.498 200.212 211.82C200.698 212.142 201.053 212.497 201.275 212.883C201.504 213.27 201.618 213.721 201.618 214.237ZM198.973 214.369C198.973 214.123 198.873 213.915 198.674 213.745C198.475 213.575 198.176 213.399 197.777 213.217V215.406C198.574 215.271 198.973 214.925 198.973 214.369ZM195.439 209.034C195.439 209.292 195.527 209.505 195.703 209.675C195.885 209.839 196.175 210.009 196.573 210.185V208.12C195.817 208.231 195.439 208.536 195.439 209.034ZM207.7 210.044C208.942 210.044 209.93 210.393 210.662 211.09C211.4 211.788 211.77 212.743 211.77 213.956C211.77 215.391 211.327 216.496 210.442 217.269C209.558 218.042 208.292 218.429 206.646 218.429C205.216 218.429 204.062 218.198 203.183 217.735V215.388C203.646 215.634 204.185 215.836 204.8 215.995C205.415 216.147 205.998 216.223 206.549 216.223C208.207 216.223 209.036 215.543 209.036 214.184C209.036 212.889 208.178 212.242 206.461 212.242C206.15 212.242 205.808 212.274 205.433 212.338C205.058 212.397 204.753 212.461 204.519 212.532L203.438 211.952L203.921 205.404H210.891V207.707H206.303L206.065 210.229L206.373 210.167C206.73 210.085 207.173 210.044 207.7 210.044ZM222.22 211.829C222.22 214.073 221.851 215.734 221.112 216.812C220.38 217.89 219.249 218.429 217.72 218.429C216.237 218.429 215.118 217.873 214.362 216.759C213.612 215.646 213.237 214.002 213.237 211.829C213.237 209.561 213.604 207.891 214.336 206.819C215.068 205.741 216.196 205.202 217.72 205.202C219.202 205.202 220.321 205.764 221.077 206.889C221.839 208.014 222.22 209.661 222.22 211.829ZM215.936 211.829C215.936 213.405 216.07 214.536 216.34 215.221C216.615 215.901 217.075 216.241 217.72 216.241C218.353 216.241 218.81 215.895 219.091 215.204C219.372 214.512 219.513 213.387 219.513 211.829C219.513 210.252 219.369 209.122 219.082 208.436C218.801 207.745 218.347 207.399 217.72 207.399C217.081 207.399 216.624 207.745 216.349 208.436C216.073 209.122 215.936 210.252 215.936 211.829ZM232.503 211.829C232.503 214.073 232.134 215.734 231.396 216.812C230.663 217.89 229.532 218.429 228.003 218.429C226.521 218.429 225.401 217.873 224.646 216.759C223.896 215.646 223.521 214.002 223.521 211.829C223.521 209.561 223.887 207.891 224.619 206.819C225.352 205.741 226.48 205.202 228.003 205.202C229.485 205.202 230.605 205.764 231.36 206.889C232.122 208.014 232.503 209.661 232.503 211.829ZM226.219 211.829C226.219 213.405 226.354 214.536 226.623 215.221C226.898 215.901 227.358 216.241 228.003 216.241C228.636 216.241 229.093 215.895 229.374 215.204C229.655 214.512 229.796 213.387 229.796 211.829C229.796 210.252 229.652 209.122 229.365 208.436C229.084 207.745 228.63 207.399 228.003 207.399C227.364 207.399 226.907 207.745 226.632 208.436C226.356 209.122 226.219 210.252 226.219 211.829Z" fill="#00031A"/>
<line x1="86.1489" y1="95.429" x2="86.1489" y2="378" stroke="#E4E7FF"/>
<line x1="200.268" y1="236.12" x2="200.268" y2="423.313" stroke="#E4E7FF"/>
<line x1="1050.37" y1="61.0613" x2="1050.37" y2="388.176" stroke="#E4E7FF"/>
</svg>
