<svg width="200" height="399" viewBox="0 0 200 399" fill="none" xmlns="http://www.w3.org/2000/svg">
<rect x="49.1055" y="0.516968" width="150.506" height="65" rx="13" fill="white"/>
<rect opacity="0.8" x="59.1055" y="10.517" width="45.5058" height="45" rx="7.89474" fill="#ADEBF3"/>
<path fill-rule="evenodd" clip-rule="evenodd" d="M88.6902 33.4958L86.4258 31.4664L83.3877 39.4292L88.6902 33.4958ZM83.2822 35.7166L85.4569 30.0197C85.4569 30.0183 85.4576 30.0169 85.4583 30.0155L86.0107 28.5682L83.2822 27.5243V35.7166ZM82.0289 39.0033H77.8447L81.4957 40.4006L82.0289 39.0033ZM81.2531 41.8176L77.3486 40.3231L80.2586 42.9305L81.2531 41.8176ZM74.7402 37.5954H81.8586V24.9248H74.7402V37.5954ZM90.2225 33.9069L80.8476 44.3968C80.7216 44.5383 80.5437 44.6234 80.3536 44.6333C80.3408 44.634 80.3273 44.6347 80.3138 44.6347C80.1379 44.6347 79.9671 44.57 79.8361 44.4524L73.5506 38.8196C73.5478 38.8175 73.547 38.814 73.5435 38.8111C73.5399 38.8076 73.5349 38.8055 73.5321 38.802C73.4901 38.7612 73.463 38.7105 73.4317 38.6612C73.4161 38.6359 73.3933 38.614 73.3812 38.588C73.3798 38.5845 73.3776 38.5831 73.3769 38.5803C73.3613 38.5458 73.3605 38.5056 73.3513 38.469C73.3499 38.4648 73.3492 38.4599 73.3477 38.455C73.3378 38.4113 73.32 38.3705 73.3185 38.3261C73.3178 38.3205 73.3185 38.3149 73.3185 38.3092C73.3185 38.3057 73.3164 38.3029 73.3164 38.2994V24.2209C73.3164 23.8316 73.6353 23.517 74.0282 23.517H82.5703C82.9639 23.517 83.2821 23.8316 83.2821 24.2209V26.0145L87.1823 27.5068C87.5474 27.6462 87.7297 28.0509 87.5916 28.4121L86.9666 30.0501L90.167 32.9193C90.4553 33.1783 90.4802 33.6183 90.2225 33.9069ZM77.5877 30.2042C77.5877 30.3984 77.7472 30.5561 77.9437 30.5561H78.6555C79.6371 30.5561 80.4351 31.3452 80.4351 32.3159C80.4351 33.1663 79.8229 33.8765 79.0114 34.0398V34.7797C79.0114 35.1689 78.6932 35.4836 78.2996 35.4836C77.9066 35.4836 77.5877 35.1689 77.5877 34.7797V34.0757H76.8759C76.483 34.0757 76.1641 33.7611 76.1641 33.3718C76.1641 32.9826 76.483 32.6679 76.8759 32.6679H78.6562C78.852 32.6679 79.0114 32.5102 79.0114 32.3159C79.0114 32.1224 78.852 31.964 78.6555 31.964H77.9437C76.9627 31.964 76.1641 31.1749 76.1641 30.2042C76.1641 29.3538 76.777 28.6436 77.5877 28.4802V27.7404C77.5877 27.3512 77.9066 27.0365 78.2996 27.0365C78.6932 27.0365 79.0114 27.3512 79.0114 27.7404V28.4443H79.7232C80.1169 28.4443 80.4351 28.759 80.4351 29.1483C80.4351 29.5375 80.1169 29.8522 79.7232 29.8522H77.9437C77.7472 29.8522 77.5877 30.0106 77.5877 30.2042Z" fill="#00031A"/>
<path d="M120.426 25.517H119.43V17.8353H116.717V16.9506H123.139V17.8353H120.426V25.517ZM129.83 22.3002C129.83 23.347 129.566 24.1654 129.039 24.7552C128.512 25.3412 127.783 25.6342 126.853 25.6342C126.279 25.6342 125.769 25.4994 125.324 25.2299C124.879 24.9603 124.535 24.5736 124.293 24.0697C124.051 23.5658 123.93 22.976 123.93 22.3002C123.93 21.2533 124.191 20.4388 124.715 19.8568C125.238 19.2709 125.965 18.9779 126.894 18.9779C127.793 18.9779 128.506 19.2767 129.033 19.8744C129.564 20.472 129.83 21.2806 129.83 22.3002ZM124.937 22.3002C124.937 23.1205 125.101 23.7455 125.43 24.1752C125.758 24.6049 126.24 24.8197 126.877 24.8197C127.514 24.8197 127.996 24.6068 128.324 24.181C128.656 23.7513 128.822 23.1244 128.822 22.3002C128.822 21.4838 128.656 20.8646 128.324 20.4427C127.996 20.017 127.51 19.8041 126.865 19.8041C126.228 19.8041 125.748 20.0131 125.424 20.431C125.1 20.849 124.937 21.472 124.937 22.3002ZM133.615 24.8314C133.787 24.8314 133.953 24.8197 134.113 24.7963C134.273 24.7689 134.4 24.7416 134.494 24.7142V25.4584C134.389 25.5092 134.232 25.5502 134.025 25.5814C133.822 25.6166 133.639 25.6342 133.475 25.6342C132.232 25.6342 131.611 24.9799 131.611 23.6713V19.851H130.691V19.3822L131.611 18.9779L132.021 17.6068H132.584V19.0951H134.447V19.851H132.584V23.6302C132.584 24.017 132.676 24.3138 132.859 24.5209C133.043 24.7279 133.295 24.8314 133.615 24.8314ZM139.732 25.517L139.539 24.6029H139.492C139.172 25.0052 138.851 25.2787 138.531 25.4232C138.215 25.5638 137.818 25.6342 137.342 25.6342C136.705 25.6342 136.205 25.4701 135.842 25.142C135.482 24.8138 135.303 24.347 135.303 23.7416C135.303 22.4447 136.34 21.765 138.414 21.7025L139.504 21.6674V21.2689C139.504 20.765 139.394 20.3939 139.176 20.1556C138.961 19.9135 138.615 19.7924 138.139 19.7924C137.603 19.7924 136.998 19.9564 136.322 20.2845L136.023 19.5404C136.34 19.3685 136.685 19.2338 137.06 19.1361C137.439 19.0385 137.818 18.9896 138.197 18.9896C138.963 18.9896 139.529 19.1595 139.896 19.4994C140.267 19.8392 140.453 20.3842 140.453 21.1342V25.517H139.732ZM137.535 24.8314C138.141 24.8314 138.615 24.6654 138.959 24.3334C139.307 24.0013 139.48 23.5365 139.48 22.9388V22.3588L138.508 22.3998C137.734 22.4271 137.176 22.5482 136.832 22.7631C136.492 22.974 136.322 23.3041 136.322 23.7533C136.322 24.1049 136.428 24.3724 136.639 24.556C136.853 24.7396 137.152 24.8314 137.535 24.8314ZM143.435 25.517H142.463V16.3998H143.435V25.517ZM152.986 24.6556H152.934C152.484 25.308 151.812 25.6342 150.918 25.6342C150.078 25.6342 149.424 25.347 148.955 24.7728C148.49 24.1986 148.258 23.3822 148.258 22.3236C148.258 21.265 148.492 20.4427 148.961 19.8568C149.43 19.2709 150.082 18.9779 150.918 18.9779C151.789 18.9779 152.457 19.2943 152.922 19.9271H152.998L152.957 19.4642L152.934 19.0131V16.3998H153.906V25.517H153.115L152.986 24.6556ZM151.041 24.8197C151.705 24.8197 152.185 24.64 152.482 24.2806C152.783 23.9174 152.934 23.3334 152.934 22.5287V22.3236C152.934 21.4135 152.781 20.765 152.476 20.3783C152.176 19.9877 151.693 19.7924 151.029 19.7924C150.459 19.7924 150.021 20.015 149.717 20.4603C149.416 20.9017 149.266 21.5267 149.266 22.3353C149.266 23.1556 149.416 23.7748 149.717 24.1927C150.017 24.6107 150.459 24.8197 151.041 24.8197ZM158.687 25.6342C157.738 25.6342 156.988 25.3451 156.437 24.767C155.891 24.1888 155.617 23.3861 155.617 22.3588C155.617 21.3236 155.871 20.5013 156.379 19.892C156.891 19.2826 157.576 18.9779 158.435 18.9779C159.24 18.9779 159.877 19.2435 160.346 19.7748C160.814 20.3021 161.049 20.9994 161.049 21.8666V22.4818H156.625C156.644 23.2357 156.834 23.808 157.193 24.1986C157.557 24.5892 158.066 24.7845 158.723 24.7845C159.414 24.7845 160.098 24.64 160.773 24.351V25.2181C160.43 25.3666 160.103 25.472 159.795 25.5345C159.49 25.601 159.121 25.6342 158.687 25.6342ZM158.424 19.7924C157.908 19.7924 157.496 19.9603 157.187 20.2963C156.883 20.6322 156.703 21.097 156.648 21.6908H160.006C160.006 21.0775 159.869 20.6088 159.596 20.2845C159.322 19.9564 158.932 19.7924 158.424 19.7924ZM165.701 25.6342C165.283 25.6342 164.9 25.558 164.553 25.4056C164.209 25.2494 163.92 25.0111 163.685 24.6908H163.615C163.662 25.0658 163.685 25.4213 163.685 25.7572V28.3998H162.713V19.0951H163.504L163.639 19.974H163.685C163.935 19.6224 164.226 19.3685 164.559 19.2123C164.891 19.056 165.271 18.9779 165.701 18.9779C166.553 18.9779 167.209 19.2689 167.67 19.851C168.135 20.433 168.367 21.2494 168.367 22.3002C168.367 23.3549 168.131 24.1752 167.658 24.7611C167.189 25.3431 166.537 25.6342 165.701 25.6342ZM165.56 19.8041C164.904 19.8041 164.43 19.9857 164.137 20.349C163.844 20.7123 163.693 21.2904 163.685 22.0834V22.3002C163.685 23.2025 163.836 23.849 164.137 24.2396C164.437 24.6263 164.92 24.8197 165.584 24.8197C166.139 24.8197 166.572 24.5951 166.885 24.1459C167.201 23.6967 167.359 23.0775 167.359 22.2885C167.359 21.4877 167.201 20.8744 166.885 20.4486C166.572 20.0189 166.131 19.8041 165.56 19.8041ZM175.615 22.3002C175.615 23.347 175.351 24.1654 174.824 24.7552C174.297 25.3412 173.568 25.6342 172.639 25.6342C172.064 25.6342 171.555 25.4994 171.109 25.2299C170.664 24.9603 170.32 24.5736 170.078 24.0697C169.836 23.5658 169.715 22.976 169.715 22.3002C169.715 21.2533 169.976 20.4388 170.5 19.8568C171.023 19.2709 171.75 18.9779 172.68 18.9779C173.578 18.9779 174.291 19.2767 174.818 19.8744C175.35 20.472 175.615 21.2806 175.615 22.3002ZM170.723 22.3002C170.723 23.1205 170.887 23.7455 171.215 24.1752C171.543 24.6049 172.025 24.8197 172.662 24.8197C173.299 24.8197 173.781 24.6068 174.109 24.181C174.441 23.7513 174.607 23.1244 174.607 22.3002C174.607 21.4838 174.441 20.8646 174.109 20.4427C173.781 20.017 173.295 19.8041 172.65 19.8041C172.014 19.8041 171.533 20.0131 171.209 20.431C170.885 20.849 170.723 21.472 170.723 22.3002ZM181.469 23.765C181.469 24.3627 181.246 24.8236 180.801 25.1478C180.355 25.472 179.73 25.6342 178.926 25.6342C178.074 25.6342 177.41 25.4994 176.934 25.2299V24.3275C177.242 24.4838 177.572 24.6068 177.924 24.6967C178.279 24.7865 178.621 24.8314 178.949 24.8314C179.457 24.8314 179.848 24.7513 180.121 24.5912C180.394 24.4271 180.531 24.1791 180.531 23.847C180.531 23.597 180.422 23.3842 180.203 23.2084C179.988 23.0287 179.566 22.8177 178.937 22.5756C178.34 22.3529 177.914 22.1595 177.66 21.9955C177.41 21.8275 177.223 21.6381 177.098 21.4271C176.976 21.2162 176.916 20.9642 176.916 20.6713C176.916 20.1478 177.129 19.7357 177.555 19.4349C177.98 19.1302 178.564 18.9779 179.307 18.9779C179.998 18.9779 180.674 19.1185 181.334 19.3998L180.988 20.1908C180.344 19.9252 179.76 19.7924 179.236 19.7924C178.775 19.7924 178.428 19.8646 178.193 20.0092C177.959 20.1537 177.842 20.3529 177.842 20.6068C177.842 20.7787 177.885 20.9252 177.971 21.0463C178.06 21.1674 178.203 21.2826 178.398 21.392C178.594 21.5013 178.969 21.6595 179.523 21.8666C180.285 22.1439 180.799 22.4232 181.064 22.7045C181.334 22.9857 181.469 23.3392 181.469 23.765ZM184.029 25.517H183.057V19.0951H184.029V25.517ZM182.975 17.3549C182.975 17.1322 183.029 16.9701 183.139 16.8685C183.248 16.7631 183.385 16.7103 183.549 16.7103C183.705 16.7103 183.84 16.7631 183.953 16.8685C184.066 16.974 184.123 17.1361 184.123 17.3549C184.123 17.5736 184.066 17.7377 183.953 17.847C183.84 17.9525 183.705 18.0052 183.549 18.0052C183.385 18.0052 183.248 17.9525 183.139 17.847C183.029 17.7377 182.975 17.5736 182.975 17.3549ZM188.166 24.8314C188.338 24.8314 188.504 24.8197 188.664 24.7963C188.824 24.7689 188.951 24.7416 189.045 24.7142V25.4584C188.939 25.5092 188.783 25.5502 188.576 25.5814C188.373 25.6166 188.189 25.6342 188.025 25.6342C186.783 25.6342 186.162 24.9799 186.162 23.6713V19.851H185.242V19.3822L186.162 18.9779L186.572 17.6068H187.135V19.0951H188.998V19.851H187.135V23.6302C187.135 24.017 187.226 24.3138 187.41 24.5209C187.594 24.7279 187.846 24.8314 188.166 24.8314Z" fill="#00031A"/>
<path d="M126.209 43.5004C126.209 44.432 125.872 45.182 125.198 45.7504C124.524 46.3129 123.581 46.6498 122.368 46.7611V48.5629H121.164V46.7963C119.734 46.767 118.48 46.515 117.402 46.0404V43.7201C117.912 43.972 118.524 44.1947 119.239 44.3881C119.96 44.5814 120.601 44.6957 121.164 44.7308V42.0062L120.575 41.7777C119.415 41.3207 118.592 40.8256 118.105 40.2924C117.625 39.7533 117.385 39.0883 117.385 38.2972C117.385 37.4476 117.716 36.7504 118.378 36.2054C119.046 35.6547 119.975 35.3207 121.164 35.2035V33.8588H122.368V35.1683C123.71 35.2269 124.923 35.4965 126.007 35.9769L125.181 38.0336C124.267 37.6586 123.329 37.4301 122.368 37.348V39.9408C123.511 40.3802 124.322 40.7611 124.803 41.0834C125.289 41.4056 125.643 41.7601 125.866 42.1469C126.095 42.5336 126.209 42.9847 126.209 43.5004ZM123.563 43.6322C123.563 43.3861 123.464 43.1781 123.265 43.0082C123.065 42.8383 122.767 42.6625 122.368 42.4808V44.6693C123.165 44.5345 123.563 44.1888 123.563 43.6322ZM120.03 38.2972C120.03 38.5551 120.118 38.7689 120.294 38.9388C120.475 39.1029 120.766 39.2728 121.164 39.4486V37.3832C120.408 37.4945 120.03 37.7992 120.03 38.2972ZM132.291 39.308C133.533 39.308 134.52 39.6566 135.253 40.3539C135.991 41.0511 136.36 42.0062 136.36 43.2191C136.36 44.6547 135.918 45.7592 135.033 46.5326C134.148 47.306 132.883 47.6927 131.236 47.6927C129.807 47.6927 128.652 47.4613 127.773 46.9984V44.6517C128.236 44.8978 128.775 45.1 129.391 45.2582C130.006 45.4105 130.589 45.4867 131.14 45.4867C132.798 45.4867 133.627 44.807 133.627 43.4476C133.627 42.1527 132.768 41.5052 131.052 41.5052C130.741 41.5052 130.398 41.5375 130.023 41.6019C129.648 41.6605 129.344 41.725 129.109 41.7953L128.028 41.2152L128.512 34.6674H135.481V36.9701H130.893L130.656 39.4926L130.964 39.431C131.321 39.349 131.764 39.308 132.291 39.308ZM146.81 41.0922C146.81 43.3363 146.441 44.9974 145.703 46.0756C144.971 47.1537 143.84 47.6927 142.31 47.6927C140.828 47.6927 139.709 47.1361 138.953 46.0228C138.203 44.9095 137.828 43.266 137.828 41.0922C137.828 38.8246 138.194 37.1547 138.927 36.0824C139.659 35.0043 140.787 34.4652 142.31 34.4652C143.793 34.4652 144.912 35.0277 145.668 36.1527C146.43 37.2777 146.81 38.9242 146.81 41.0922ZM140.526 41.0922C140.526 42.6683 140.661 43.7992 140.931 44.4847C141.206 45.1644 141.666 45.5043 142.31 45.5043C142.943 45.5043 143.4 45.1586 143.682 44.4672C143.963 43.7758 144.103 42.6508 144.103 41.0922C144.103 39.516 143.96 38.3851 143.673 37.6996C143.392 37.0082 142.937 36.6625 142.31 36.6625C141.672 36.6625 141.215 37.0082 140.939 37.6996C140.664 38.3851 140.526 39.516 140.526 41.0922ZM157.094 41.0922C157.094 43.3363 156.725 44.9974 155.986 46.0756C155.254 47.1537 154.123 47.6927 152.594 47.6927C151.111 47.6927 149.992 47.1361 149.236 46.0228C148.486 44.9095 148.111 43.266 148.111 41.0922C148.111 38.8246 148.477 37.1547 149.21 36.0824C149.942 35.0043 151.07 34.4652 152.594 34.4652C154.076 34.4652 155.195 35.0277 155.951 36.1527C156.713 37.2777 157.094 38.9242 157.094 41.0922ZM150.809 41.0922C150.809 42.6683 150.944 43.7992 151.214 44.4847C151.489 45.1644 151.949 45.5043 152.594 45.5043C153.226 45.5043 153.684 45.1586 153.965 44.4672C154.246 43.7758 154.387 42.6508 154.387 41.0922C154.387 39.516 154.243 38.3851 153.956 37.6996C153.675 37.0082 153.221 36.6625 152.594 36.6625C151.955 36.6625 151.498 37.0082 151.223 37.6996C150.947 38.3851 150.809 39.516 150.809 41.0922Z" fill="#00031A"/>
<line x1="90.9004" y1="211.443" x2="90.9004" y2="398.635" stroke="#E4E7FF"/>
<line x1="125.374" y1="61.0613" x2="125.374" y2="388.176" stroke="#E4E7FF"/>
<rect x="0.647461" y="151.253" width="179.506" height="65" rx="13" fill="white"/>
<rect opacity="0.5" x="10.6475" y="161.253" width="45.5058" height="45" rx="7.89474" fill="#5465FF"/>
<path fill-rule="evenodd" clip-rule="evenodd" d="M40.2322 184.232L37.9678 182.203L34.9297 190.166L40.2322 184.232ZM34.8242 186.453L36.9989 180.756C36.9989 180.755 36.9996 180.753 37.0003 180.752L37.5527 179.305L34.8242 178.261V186.453ZM33.5709 189.74H29.3867L33.0377 191.137L33.5709 189.74ZM32.795 192.554L28.8906 191.06L31.8006 193.667L32.795 192.554ZM26.2822 188.332H33.4006V175.661H26.2822V188.332ZM41.7645 184.643L32.3896 195.133C32.2636 195.275 32.0857 195.36 31.8956 195.37C31.8828 195.37 31.8693 195.371 31.8557 195.371C31.6799 195.371 31.5091 195.306 31.3781 195.189L25.0926 189.556C25.0897 189.554 25.089 189.55 25.0855 189.548C25.0819 189.544 25.0769 189.542 25.0741 189.538C25.0321 189.498 25.005 189.447 24.9737 189.398C24.9581 189.372 24.9353 189.35 24.9232 189.324C24.9218 189.321 24.9196 189.32 24.9189 189.317C24.9032 189.282 24.9025 189.242 24.8933 189.205C24.8919 189.201 24.8911 189.196 24.8897 189.191C24.8798 189.148 24.862 189.107 24.8605 189.063C24.8598 189.057 24.8605 189.051 24.8605 189.046C24.8605 189.042 24.8584 189.039 24.8584 189.036V174.957C24.8584 174.568 25.1773 174.253 25.5702 174.253H34.1123C34.5059 174.253 34.8241 174.568 34.8241 174.957V176.751L38.7243 178.243C39.0894 178.383 39.2717 178.787 39.1336 179.149L38.5086 180.787L41.709 183.656C41.9973 183.915 42.0222 184.355 41.7645 184.643ZM29.1297 180.941C29.1297 181.135 29.2892 181.293 29.4856 181.293H30.1975C31.1791 181.293 31.9771 182.082 31.9771 183.052C31.9771 183.903 31.3649 184.613 30.5534 184.776V185.516C30.5534 185.905 30.2352 186.22 29.8416 186.22C29.4486 186.22 29.1297 185.905 29.1297 185.516V184.812H28.4179C28.025 184.812 27.7061 184.498 27.7061 184.108C27.7061 183.719 28.025 183.404 28.4179 183.404H30.1982C30.3939 183.404 30.5534 183.247 30.5534 183.052C30.5534 182.859 30.3939 182.7 30.1975 182.7H29.4856C28.5047 182.7 27.7061 181.911 27.7061 180.941C27.7061 180.09 28.3189 179.38 29.1297 179.217V178.477C29.1297 178.088 29.4486 177.773 29.8416 177.773C30.2352 177.773 30.5534 178.088 30.5534 178.477V179.181H31.2652C31.6589 179.181 31.9771 179.495 31.9771 179.885C31.9771 180.274 31.6589 180.589 31.2652 180.589H29.4856C29.2892 180.589 29.1297 180.747 29.1297 180.941Z" fill="#1A0003"/>
<path d="M71.9677 176.253H70.9716V168.572H68.2587V167.687H74.6806V168.572H71.9677V176.253ZM81.372 173.037C81.372 174.083 81.1083 174.902 80.581 175.492C80.0536 176.078 79.3251 176.371 78.3954 176.371C77.8212 176.371 77.3114 176.236 76.8661 175.966C76.4208 175.697 76.0771 175.31 75.8349 174.806C75.5927 174.302 75.4716 173.712 75.4716 173.037C75.4716 171.99 75.7333 171.175 76.2567 170.593C76.7802 170.007 77.5067 169.714 78.4364 169.714C79.3349 169.714 80.0478 170.013 80.5751 170.611C81.1064 171.208 81.372 172.017 81.372 173.037ZM76.4794 173.037C76.4794 173.857 76.6435 174.482 76.9716 174.912C77.2997 175.341 77.7821 175.556 78.4189 175.556C79.0556 175.556 79.538 175.343 79.8661 174.917C80.1982 174.488 80.3642 173.861 80.3642 173.037C80.3642 172.22 80.1982 171.601 79.8661 171.179C79.538 170.753 79.0517 170.541 78.4071 170.541C77.7704 170.541 77.2899 170.75 76.9657 171.167C76.6415 171.585 76.4794 172.208 76.4794 173.037ZM85.1571 175.568C85.329 175.568 85.495 175.556 85.6552 175.533C85.8153 175.505 85.9423 175.478 86.036 175.451V176.195C85.9306 176.246 85.7743 176.287 85.5673 176.318C85.3642 176.353 85.1806 176.371 85.0165 176.371C83.7743 176.371 83.1532 175.716 83.1532 174.408V170.587H82.2333V170.119L83.1532 169.714L83.5634 168.343H84.1259V169.832H85.9892V170.587H84.1259V174.367C84.1259 174.753 84.2177 175.05 84.4013 175.257C84.5849 175.464 84.8368 175.568 85.1571 175.568ZM91.2743 176.253L91.081 175.339H91.0341C90.7138 175.742 90.3935 176.015 90.0732 176.16C89.7567 176.3 89.3603 176.371 88.8837 176.371C88.247 176.371 87.747 176.207 87.3837 175.878C87.0243 175.55 86.8446 175.083 86.8446 174.478C86.8446 173.181 87.8817 172.501 89.956 172.439L91.0458 172.404V172.005C91.0458 171.501 90.9364 171.13 90.7177 170.892C90.5028 170.65 90.1571 170.529 89.6806 170.529C89.1454 170.529 88.5399 170.693 87.8642 171.021L87.5653 170.277C87.8817 170.105 88.2274 169.97 88.6024 169.873C88.9814 169.775 89.3603 169.726 89.7392 169.726C90.5048 169.726 91.0712 169.896 91.4384 170.236C91.8095 170.576 91.995 171.121 91.995 171.871V176.253H91.2743ZM89.0771 175.568C89.6825 175.568 90.1571 175.402 90.5009 175.07C90.8485 174.738 91.0224 174.273 91.0224 173.675V173.095L90.0497 173.136C89.2763 173.164 88.7177 173.285 88.3739 173.5C88.0341 173.71 87.8642 174.041 87.8642 174.49C87.8642 174.841 87.9696 175.109 88.1806 175.292C88.3954 175.476 88.6942 175.568 89.0771 175.568ZM94.9774 176.253H94.0048V167.136H94.9774V176.253ZM107.78 176.253H106.796L105.067 170.517C104.985 170.263 104.893 169.943 104.792 169.556C104.69 169.169 104.638 168.937 104.634 168.859C104.548 169.375 104.411 169.939 104.224 170.552L102.548 176.253H101.563L99.2841 167.687H100.339L101.692 172.978C101.88 173.72 102.017 174.392 102.102 174.994C102.208 174.279 102.364 173.58 102.571 172.896L104.106 167.687H105.161L106.772 172.943C106.96 173.548 107.118 174.232 107.247 174.994C107.321 174.439 107.462 173.763 107.669 172.966L109.017 167.687H110.071L107.78 176.253ZM112.239 176.253H111.267V169.832H112.239V176.253ZM111.184 168.091C111.184 167.869 111.239 167.707 111.349 167.605C111.458 167.5 111.595 167.447 111.759 167.447C111.915 167.447 112.05 167.5 112.163 167.605C112.276 167.71 112.333 167.873 112.333 168.091C112.333 168.31 112.276 168.474 112.163 168.583C112.05 168.689 111.915 168.742 111.759 168.742C111.595 168.742 111.458 168.689 111.349 168.583C111.239 168.474 111.184 168.31 111.184 168.091ZM116.376 175.568C116.548 175.568 116.714 175.556 116.874 175.533C117.034 175.505 117.161 175.478 117.255 175.451V176.195C117.149 176.246 116.993 176.287 116.786 176.318C116.583 176.353 116.399 176.371 116.235 176.371C114.993 176.371 114.372 175.716 114.372 174.408V170.587H113.452V170.119L114.372 169.714L114.782 168.343H115.345V169.832H117.208V170.587H115.345V174.367C115.345 174.753 115.436 175.05 115.62 175.257C115.804 175.464 116.056 175.568 116.376 175.568ZM122.938 176.253V172.099C122.938 171.576 122.819 171.185 122.581 170.927C122.343 170.669 121.97 170.541 121.462 170.541C120.786 170.541 120.292 170.724 119.979 171.091C119.671 171.458 119.517 172.06 119.517 172.896V176.253H118.544V167.136H119.517V169.896C119.517 170.228 119.501 170.503 119.47 170.722H119.528C119.72 170.414 119.991 170.171 120.343 169.996C120.698 169.816 121.102 169.726 121.556 169.726C122.341 169.726 122.929 169.914 123.319 170.289C123.714 170.66 123.911 171.251 123.911 172.064V176.253H122.938ZM130.286 175.392H130.233C129.784 176.044 129.112 176.371 128.218 176.371C127.378 176.371 126.724 176.083 126.255 175.509C125.79 174.935 125.558 174.119 125.558 173.06C125.558 172.001 125.792 171.179 126.261 170.593C126.729 170.007 127.382 169.714 128.218 169.714C129.089 169.714 129.757 170.031 130.222 170.664H130.298L130.257 170.201L130.233 169.75V167.136H131.206V176.253H130.415L130.286 175.392ZM128.341 175.556C129.005 175.556 129.485 175.376 129.782 175.017C130.083 174.654 130.233 174.07 130.233 173.265V173.06C130.233 172.15 130.081 171.501 129.776 171.115C129.475 170.724 128.993 170.529 128.329 170.529C127.759 170.529 127.321 170.751 127.017 171.197C126.716 171.638 126.565 172.263 126.565 173.072C126.565 173.892 126.716 174.511 127.017 174.929C127.317 175.347 127.759 175.556 128.341 175.556ZM136.204 169.714C136.489 169.714 136.745 169.738 136.972 169.785L136.837 170.687C136.571 170.628 136.337 170.599 136.134 170.599C135.614 170.599 135.169 170.81 134.798 171.232C134.431 171.654 134.247 172.179 134.247 172.808V176.253H133.274V169.832H134.077L134.188 171.021H134.235C134.474 170.603 134.761 170.281 135.097 170.054C135.433 169.828 135.802 169.714 136.204 169.714ZM142.122 176.253L141.929 175.339H141.882C141.561 175.742 141.241 176.015 140.921 176.16C140.604 176.3 140.208 176.371 139.731 176.371C139.095 176.371 138.595 176.207 138.231 175.878C137.872 175.55 137.692 175.083 137.692 174.478C137.692 173.181 138.729 172.501 140.804 172.439L141.893 172.404V172.005C141.893 171.501 141.784 171.13 141.565 170.892C141.35 170.65 141.005 170.529 140.528 170.529C139.993 170.529 139.388 170.693 138.712 171.021L138.413 170.277C138.729 170.105 139.075 169.97 139.45 169.873C139.829 169.775 140.208 169.726 140.587 169.726C141.352 169.726 141.919 169.896 142.286 170.236C142.657 170.576 142.843 171.121 142.843 171.871V176.253H142.122ZM139.925 175.568C140.53 175.568 141.005 175.402 141.349 175.07C141.696 174.738 141.87 174.273 141.87 173.675V173.095L140.897 173.136C140.124 173.164 139.565 173.285 139.222 173.5C138.882 173.71 138.712 174.041 138.712 174.49C138.712 174.841 138.817 175.109 139.028 175.292C139.243 175.476 139.542 175.568 139.925 175.568ZM150.097 176.253L148.919 172.486C148.845 172.255 148.706 171.732 148.503 170.916H148.456C148.3 171.599 148.163 172.126 148.046 172.498L146.833 176.253H145.708L143.956 169.832H144.975C145.39 171.445 145.704 172.673 145.919 173.517C146.138 174.361 146.263 174.929 146.294 175.222H146.341C146.384 175 146.452 174.712 146.546 174.361C146.643 174.005 146.727 173.724 146.798 173.517L147.975 169.832H149.03L150.179 173.517C150.397 174.189 150.546 174.753 150.624 175.21H150.671C150.686 175.07 150.727 174.853 150.794 174.56C150.864 174.267 151.272 172.691 152.018 169.832H153.026L151.251 176.253H150.097ZM158.142 176.253L157.948 175.339H157.901C157.581 175.742 157.261 176.015 156.94 176.16C156.624 176.3 156.227 176.371 155.751 176.371C155.114 176.371 154.614 176.207 154.251 175.878C153.892 175.55 153.712 175.083 153.712 174.478C153.712 173.181 154.749 172.501 156.823 172.439L157.913 172.404V172.005C157.913 171.501 157.804 171.13 157.585 170.892C157.37 170.65 157.024 170.529 156.548 170.529C156.013 170.529 155.407 170.693 154.731 171.021L154.433 170.277C154.749 170.105 155.095 169.97 155.47 169.873C155.849 169.775 156.227 169.726 156.606 169.726C157.372 169.726 157.938 169.896 158.306 170.236C158.677 170.576 158.862 171.121 158.862 171.871V176.253H158.142ZM155.944 175.568C156.55 175.568 157.024 175.402 157.368 175.07C157.716 174.738 157.89 174.273 157.89 173.675V173.095L156.917 173.136C156.143 173.164 155.585 173.285 155.241 173.5C154.901 173.71 154.731 174.041 154.731 174.49C154.731 174.841 154.837 175.109 155.048 175.292C155.263 175.476 155.561 175.568 155.944 175.568ZM161.845 176.253H160.872V167.136H161.845V176.253Z" fill="#00031A"/>
<path d="M81.1698 198.253H77.7069L72.1171 188.533H72.038C72.1493 190.25 72.205 191.474 72.205 192.207V198.253H69.7704V185.404H73.2069L78.788 195.028H78.8495C78.7616 193.358 78.7177 192.177 78.7177 191.486V185.404H81.1698V198.253ZM90.2314 198.253H87.5155V190.818L87.5419 189.596L87.5858 188.26C87.1347 188.711 86.8212 189.007 86.6454 189.148L85.1689 190.334L83.8593 188.7L87.9989 185.404H90.2314V198.253ZM102.712 191.829C102.712 194.073 102.343 195.734 101.604 196.812C100.872 197.89 99.7411 198.429 98.2118 198.429C96.7294 198.429 95.6103 197.873 94.8544 196.759C94.1044 195.646 93.7294 194.002 93.7294 191.829C93.7294 189.561 94.0956 187.891 94.828 186.819C95.5605 185.741 96.6884 185.202 98.2118 185.202C99.6942 185.202 100.813 185.764 101.569 186.889C102.331 188.014 102.712 189.661 102.712 191.829ZM96.4276 191.829C96.4276 193.405 96.5624 194.536 96.8319 195.221C97.1073 195.901 97.5673 196.241 98.2118 196.241C98.8446 196.241 99.3017 195.895 99.5829 195.204C99.8642 194.512 100.005 193.387 100.005 191.829C100.005 190.252 99.8612 189.122 99.5741 188.436C99.2929 187.745 98.8388 187.399 98.2118 187.399C97.5732 187.399 97.1161 187.745 96.8407 188.436C96.5653 189.122 96.4276 190.252 96.4276 191.829ZM107.396 196.364C107.092 197.547 106.576 198.951 105.85 200.574H103.916C104.297 199.015 104.593 197.544 104.804 196.162H107.265L107.396 196.364ZM113.979 190.044C115.222 190.044 116.209 190.393 116.941 191.09C117.68 191.788 118.049 192.743 118.049 193.956C118.049 195.391 117.606 196.496 116.722 197.269C115.837 198.042 114.571 198.429 112.925 198.429C111.495 198.429 110.341 198.198 109.462 197.735V195.388C109.925 195.634 110.464 195.836 111.079 195.995C111.694 196.147 112.277 196.223 112.828 196.223C114.486 196.223 115.315 195.543 115.315 194.184C115.315 192.889 114.457 192.242 112.74 192.242C112.43 192.242 112.087 192.274 111.712 192.338C111.337 192.397 111.032 192.461 110.798 192.532L109.717 191.952L110.2 185.404H117.17V187.707H112.582L112.345 190.229L112.652 190.167C113.01 190.085 113.452 190.044 113.979 190.044ZM128.517 190.888C128.517 193.419 127.983 195.309 126.917 196.557C125.85 197.805 124.236 198.429 122.074 198.429C121.312 198.429 120.735 198.388 120.343 198.306V196.126C120.835 196.25 121.35 196.311 121.89 196.311C122.798 196.311 123.545 196.179 124.131 195.916C124.717 195.646 125.165 195.227 125.475 194.659C125.786 194.084 125.965 193.296 126.012 192.294H125.906C125.566 192.845 125.174 193.232 124.728 193.455C124.283 193.677 123.726 193.789 123.059 193.789C121.939 193.789 121.058 193.431 120.413 192.716C119.768 191.996 119.446 190.997 119.446 189.719C119.446 188.342 119.836 187.255 120.615 186.458C121.4 185.656 122.467 185.254 123.814 185.254C124.764 185.254 125.593 185.477 126.302 185.922C127.017 186.368 127.564 187.015 127.945 187.865C128.326 188.708 128.517 189.716 128.517 190.888ZM123.867 187.434C123.305 187.434 122.865 187.627 122.549 188.014C122.232 188.401 122.074 188.958 122.074 189.684C122.074 190.305 122.218 190.797 122.505 191.161C122.792 191.524 123.228 191.706 123.814 191.706C124.365 191.706 124.837 191.527 125.229 191.169C125.622 190.806 125.818 190.39 125.818 189.921C125.818 189.224 125.634 188.635 125.265 188.155C124.901 187.674 124.435 187.434 123.867 187.434ZM129.782 192.795C129.782 190.252 130.318 188.36 131.391 187.118C132.469 185.875 134.08 185.254 136.225 185.254C136.957 185.254 137.531 185.298 137.947 185.386V187.557C137.426 187.44 136.91 187.381 136.4 187.381C135.469 187.381 134.707 187.522 134.115 187.803C133.529 188.084 133.09 188.5 132.797 189.051C132.504 189.602 132.331 190.384 132.278 191.398H132.392C132.973 190.402 133.901 189.904 135.179 189.904C136.327 189.904 137.226 190.264 137.877 190.985C138.527 191.706 138.852 192.702 138.852 193.973C138.852 195.344 138.466 196.431 137.692 197.234C136.919 198.031 135.847 198.429 134.475 198.429C133.526 198.429 132.697 198.209 131.988 197.77C131.285 197.331 130.74 196.689 130.353 195.845C129.973 195.001 129.782 193.985 129.782 192.795ZM134.423 196.258C135.003 196.258 135.448 196.065 135.759 195.678C136.069 195.286 136.225 194.729 136.225 194.008C136.225 193.381 136.078 192.889 135.785 192.532C135.498 192.168 135.061 191.987 134.475 191.987C133.925 191.987 133.453 192.166 133.06 192.523C132.674 192.88 132.48 193.296 132.48 193.771C132.48 194.468 132.662 195.057 133.025 195.538C133.394 196.018 133.86 196.258 134.423 196.258ZM140.461 196.997C140.461 196.504 140.593 196.132 140.856 195.88C141.12 195.628 141.504 195.502 142.008 195.502C142.494 195.502 142.869 195.631 143.133 195.889C143.402 196.147 143.537 196.516 143.537 196.997C143.537 197.459 143.402 197.826 143.133 198.095C142.863 198.359 142.488 198.491 142.008 198.491C141.516 198.491 141.135 198.362 140.865 198.104C140.596 197.84 140.461 197.471 140.461 196.997ZM149.716 185.237C150.946 185.237 151.936 185.518 152.686 186.081C153.442 186.637 153.82 187.39 153.82 188.339C153.82 188.996 153.639 189.582 153.275 190.097C152.912 190.607 152.326 191.064 151.517 191.468C152.478 191.984 153.167 192.523 153.583 193.085C154.005 193.642 154.216 194.254 154.216 194.922C154.216 195.977 153.803 196.827 152.976 197.471C152.15 198.11 151.063 198.429 149.716 198.429C148.309 198.429 147.205 198.13 146.402 197.533C145.6 196.935 145.198 196.088 145.198 194.993C145.198 194.26 145.392 193.61 145.778 193.042C146.171 192.473 146.798 191.972 147.659 191.539C146.927 191.076 146.399 190.581 146.077 190.053C145.755 189.526 145.594 188.949 145.594 188.322C145.594 187.402 145.975 186.658 146.736 186.089C147.498 185.521 148.491 185.237 149.716 185.237ZM147.712 194.834C147.712 195.338 147.888 195.731 148.239 196.012C148.591 196.293 149.071 196.434 149.681 196.434C150.354 196.434 150.858 196.291 151.192 196.003C151.526 195.71 151.693 195.327 151.693 194.852C151.693 194.459 151.526 194.093 151.192 193.753C150.864 193.408 150.328 193.042 149.584 192.655C148.336 193.229 147.712 193.956 147.712 194.834ZM149.698 187.223C149.235 187.223 148.86 187.343 148.573 187.583C148.292 187.818 148.151 188.134 148.151 188.533C148.151 188.884 148.263 189.201 148.485 189.482C148.714 189.757 149.124 190.042 149.716 190.334C150.29 190.065 150.691 189.79 150.92 189.508C151.148 189.227 151.263 188.902 151.263 188.533C151.263 188.128 151.116 187.809 150.823 187.575C150.53 187.34 150.155 187.223 149.698 187.223ZM164.481 191.829C164.481 194.073 164.112 195.734 163.374 196.812C162.642 197.89 161.511 198.429 159.981 198.429C158.499 198.429 157.38 197.873 156.624 196.759C155.874 195.646 155.499 194.002 155.499 191.829C155.499 189.561 155.865 187.891 156.598 186.819C157.33 185.741 158.458 185.202 159.981 185.202C161.464 185.202 162.583 185.764 163.339 186.889C164.1 188.014 164.481 189.661 164.481 191.829ZM158.197 191.829C158.197 193.405 158.332 194.536 158.601 195.221C158.877 195.901 159.337 196.241 159.981 196.241C160.614 196.241 161.071 195.895 161.352 195.204C161.634 194.512 161.774 193.387 161.774 191.829C161.774 190.252 161.631 189.122 161.344 188.436C161.062 187.745 160.608 187.399 159.981 187.399C159.343 187.399 158.886 187.745 158.61 188.436C158.335 189.122 158.197 190.252 158.197 191.829Z" fill="#00031A"/>
</svg>
