<svg width="1440" height="330" viewBox="0 0 1440 330" fill="none" xmlns="http://www.w3.org/2000/svg">
<path d="M-91.4819 328.588C447.45 328.588 986.381 328.588 1525.31 328.588" stroke="#BDEFF5" stroke-miterlimit="10"/>
<path d="M-91.4819 319.411C181.42 319.479 454.186 317.838 727.02 315.982C845.069 315.174 963.926 315.439 1081.96 317.141C1229.72 319.269 1377.54 317.265 1525.27 319.411" stroke="#BDEFF5" stroke-miterlimit="10"/>
<path d="M-91.4819 310.369C-14.1565 310.369 63.1915 310.696 140.506 310.536C209.601 310.394 278.54 307.316 347.613 306.786C476.283 305.799 604.93 306.946 733.589 305.78C847.786 304.744 963.162 302 1077.28 306.188C1143.79 308.655 1209.62 309.777 1276.19 310.795C1359.28 312.065 1442.26 308.618 1525.31 310.369" stroke="#BDEFF5" stroke-miterlimit="10"/>
<path d="M-91.4819 301.451C-15.268 301.451 61.148 302.154 137.339 301.395C208.939 300.68 280.123 295.666 351.666 294.377C480.583 292.051 608.489 298.694 737.272 297.51C850.593 296.486 962.309 288.172 1075.75 295.61C1142.07 299.958 1206.32 303.363 1273.12 304.356C1357.32 305.589 1441.12 299.588 1525.31 301.451" stroke="#BDEFF5" stroke-miterlimit="10"/>
<path d="M-91.4819 292.705C-16.649 292.705 58.734 293.828 133.511 292.28C208.288 290.732 281.998 283.608 356.55 281.308C424.321 279.217 491.137 279.778 558.548 284.33C618.965 288.413 677.652 291.361 738.563 290.917C791.951 290.522 841.97 286.069 894.696 281.918C955.034 277.163 1017.16 279.383 1076.93 285.44C1142.73 292.113 1204.78 298.497 1271.97 299.224C1356.72 300.149 1440.51 291.108 1525.31 292.705" stroke="#BDEFF5" stroke-miterlimit="10"/>
<path d="M-91.4819 284.083C-18.2658 284.083 56.0618 285.594 129.154 283.176C207.255 280.598 284.03 271.261 361.962 267.757C428.874 264.711 496.233 266.799 562.096 273.962C620.896 280.265 677.742 285.896 737.844 285.637C793.5 285.397 843.856 277.656 897.884 271.396C959.21 264.291 1019.9 266.987 1080.29 275.603C1145.02 284.854 1204.77 294.821 1272.42 295.086C1357.31 295.425 1440.27 283.047 1525.31 284.089" stroke="#BDEFF5" stroke-miterlimit="10"/>
<path d="M-91.4819 275.596C-19.9949 275.559 53.2437 277.447 124.484 274.147C206.267 270.391 286.163 258.802 367.643 253.96C436.02 249.902 499.21 253.677 565.161 263.872C621.626 272.605 676.316 281.351 735.542 281.369C794.106 281.369 846.203 269.743 901.78 261.257C965.094 251.592 1023.48 254.405 1085.34 266.08C1148.31 277.959 1206.12 291.984 1274.14 291.675C1358.91 291.256 1440.31 275.313 1525.31 275.596" stroke="#BDEFF5" stroke-miterlimit="10"/>
<path d="M-91.4819 267.245C-21.8026 267.19 50.3357 269.287 119.6 265.229C205.133 260.22 288.016 246.393 373.246 240.151C442.577 235.075 502.758 240.503 567.643 254.084C621.177 265.29 673.756 277.434 732.017 277.817C793.59 278.224 849.1 262.256 906.047 251.506C971.808 239.09 1027.96 241.73 1091.51 256.859C1152.02 271.267 1208.46 289.763 1276.76 288.727C1361.23 287.444 1440.49 267.837 1525.29 267.245" stroke="#BDEFF5" stroke-miterlimit="10"/>
<path d="M-91.4819 259.03C-23.5878 258.956 47.4277 261.189 114.817 256.458C204.01 250.198 289.891 234.2 378.669 226.564C449.403 220.477 506.171 227.446 569.686 244.604C619.919 258.173 670.377 273.845 727.829 274.671C792.411 275.59 852.378 254.849 910.639 242.1C941.156 235.458 973.324 229.235 1006.59 230.666C1039.15 232.072 1069.98 239.602 1098.46 247.935C1155.85 264.692 1211.77 287.759 1280.07 285.995C1364.16 283.818 1440.77 260.56 1525.32 259.049" stroke="#BDEFF5" stroke-miterlimit="10"/>
<path d="M-91.4264 250.957C-25.1827 250.864 44.6763 253.153 110.224 247.873C202.819 240.435 291.384 222.37 383.451 213.415C455.803 206.371 509.292 214.753 571.089 235.445C617.942 251.136 666.289 270.311 723.225 271.612C790.591 273.148 855.712 247.528 915.085 233.028C946.186 225.429 980.486 217.418 1015.22 219.181C1047.79 220.834 1078.29 229.864 1105.52 239.226C1159.8 257.902 1215.15 285.625 1283.61 283.152C1367.35 280.117 1441 253.325 1525.33 250.957" stroke="#BDEFF5" stroke-miterlimit="10"/>
<path d="M-91.4142 243.025C-26.7537 242.914 42.0724 245.202 105.947 239.534C201.562 231.042 292.507 211.071 387.427 200.919C423.569 197.058 457.825 194.826 493.226 201.598C522.07 207.118 547.444 216.807 571.921 226.601C615.709 244.111 661.934 266.567 718.735 268.325C788.571 270.49 858.924 240.225 919.262 224.245C950.902 215.863 987.314 206.156 1023.38 208.209C1056.08 210.06 1086.19 220.464 1112.24 230.74C1163.65 250.994 1218.32 283.053 1287.16 279.951C1370.6 276.182 1441.2 246.072 1525.38 242.995" stroke="#BDEFF5" stroke-miterlimit="10"/>
<path d="M-91.4035 235.223C-28.1015 235.106 39.7927 237.382 102.196 231.455C200.237 222.142 292.911 200.457 390.222 189.349C426.487 185.21 460.642 182.645 495.864 190.33C524.438 196.602 548.791 207.364 572.078 218.121C613.295 237.135 657.588 262.41 714.67 264.538C751.149 265.901 787.83 255.447 819.335 246.597C854.287 236.778 887.892 225.59 922.832 215.759C954.944 206.729 993.118 195.652 1030.39 197.965C1063.34 200.007 1092.97 211.472 1118.09 222.512C1167.14 244.099 1220.78 279.784 1290.28 276.17C1373.57 271.853 1441.22 238.745 1525.39 235.199" stroke="#BDEFF5" stroke-miterlimit="10"/>
<path d="M-91.3918 227.563C-29.2238 227.446 37.9518 229.728 99.1542 223.69C198.924 213.853 292.676 190.687 391.614 178.889C427.712 174.571 462.125 171.814 496.987 180.048C525.528 186.789 549.151 198.477 571.595 209.973C611.094 230.197 653.715 257.569 711.493 259.931C748.971 261.448 786.719 250.124 818.718 240.762C854.837 230.184 889.453 218.145 925.572 207.556C958.133 198.002 997.43 186.055 1035.71 188.492C1069 190.613 1098.12 202.794 1122.56 214.469C1170.09 237.16 1222.1 275.405 1292.71 271.55C1376 267.005 1441.06 231.239 1525.4 227.588" stroke="#BDEFF5" stroke-miterlimit="10"/>
<path d="M-91.3699 220.039C-30.0777 219.94 36.6825 222.265 96.9867 216.276C197.598 206.285 291.608 181.904 391.311 169.785C426.914 165.468 461.967 162.655 496.335 170.945C525.112 177.883 548.409 190.2 570.438 202.184C609.309 223.363 650.672 251.833 709.662 254.127C747.971 255.62 785.82 244.179 818.268 234.391C855.151 223.289 890.406 210.633 927.278 199.519C960.254 189.577 999.72 177.439 1038.78 179.857C1072.46 181.942 1101.09 194.345 1125.23 206.519C1172.39 230.295 1221.92 269.509 1294.18 265.691C1377.68 261.281 1440.78 223.314 1525.47 220.051" stroke="#BDEFF5" stroke-miterlimit="10"/>
<path d="M-91.3583 212.638C-30.2906 212.428 36.2563 215.043 96.3022 208.937C196.229 198.754 289.038 173.646 387.954 161.243C423.456 156.796 458.487 154.132 492.832 162.322C522.025 169.298 545.782 181.763 568.137 193.894C607.726 215.382 649.527 244.216 709.292 246.905C747.871 248.638 785.495 237.339 818.089 227.397C855.028 216.122 890.216 203.22 927.144 191.939C960.277 181.812 999.541 169.841 1038.89 172.431C1072.8 174.664 1101.26 187.091 1125.45 199.402C1172.8 223.511 1221.38 262.207 1294.21 258.611C1377.95 254.491 1440.4 215.487 1525.44 212.638" stroke="#BDEFF5" stroke-miterlimit="10"/>
<path d="M-91.3475 205.403C-30.0216 205.021 36.3231 208.32 96.5824 201.789C194.735 191.15 285.456 165.628 382.564 152.787C418.493 148.032 452.603 145.559 487.443 153.805C517.162 160.83 541.762 173.165 564.937 185.192C605.839 206.445 649.403 235.569 709.168 239.239C747.511 241.595 785.27 230.265 817.583 220.329C854.073 209.11 888.733 196.195 925.212 184.964C958.278 174.781 997.542 162.902 1036.84 165.98C1070.65 168.626 1099.52 181.232 1124.04 193.407C1171.64 217.029 1221.62 254.997 1293.58 251.506C1377.52 247.429 1440.17 208.203 1525.41 205.403" stroke="#BDEFF5" stroke-miterlimit="10"/>
<path d="M-91.3246 198.292C-29.6506 197.835 36.5144 202.054 97.1443 195.14C193.299 184.174 281.65 158.32 376.715 145.183C412.947 140.162 446.26 137.924 481.492 146.065C511.673 153.04 537.261 165.055 561.299 176.989C603.572 197.959 649.145 226.977 708.854 231.535C746.849 234.44 784.316 223.345 816.337 213.452C852.21 202.35 886.14 189.515 921.99 178.42C954.955 168.219 993.848 156.679 1032.97 160.195C1066.81 163.241 1096.2 175.904 1121.27 187.949C1169.49 211.077 1221.12 248.095 1292.53 244.654C1376.84 240.595 1439.84 201.117 1525.45 198.329" stroke="#BDEFF5" stroke-miterlimit="10"/>
<path d="M-91.3022 191.316C-29.2016 190.878 36.9298 196.213 97.9863 188.948C191.94 177.778 277.72 151.659 370.551 138.294C406.929 133.057 439.613 131.09 475.137 138.997C505.857 145.83 532.399 157.499 557.369 169.218C601.405 189.811 648.572 218.411 708.45 223.807C745.996 227.187 782.8 216.573 814.507 206.748C849.594 195.868 882.66 183.144 917.724 172.252C950.565 162.045 988.706 151.079 1027.59 154.983C1061.58 158.406 1091.59 171.019 1117.41 182.898C1166.6 205.514 1220.06 241.397 1291.09 237.974C1375.92 233.885 1439.4 194.141 1525.53 191.335" stroke="#BDEFF5" stroke-miterlimit="10"/>
<path d="M-91.2911 184.476C-28.6852 184.131 37.4238 190.749 99.0304 183.169C190.626 171.901 273.678 145.547 364.117 132.107C400.473 126.692 432.708 125.009 468.412 132.57C499.681 139.194 527.156 150.456 553.148 161.817C599.182 181.942 647.786 209.856 707.889 216.03C780.42 223.486 853.714 184.68 912.492 166.387C945.209 156.198 982.317 145.991 1020.86 150.265C1055.13 154.07 1085.76 166.56 1112.47 178.26C1162.9 200.346 1218.37 234.946 1289.22 231.504C1374.67 227.36 1438.76 187.326 1525.5 184.476" stroke="#BDEFF5" stroke-miterlimit="10"/>
<path d="M-91.2682 177.778C-28.1121 177.587 38.0081 185.624 100.255 177.778C189.392 166.504 269.58 140.027 357.505 126.544C393.737 120.993 425.657 119.612 461.462 126.735C493.304 133.082 521.733 143.844 548.747 154.847C596.779 174.399 646.832 201.382 707.238 208.32C778.669 216.511 848.808 178.827 906.496 160.83C938.394 150.894 975.581 140.878 1013.07 145.997C1047.88 150.746 1078.54 162.261 1106.77 173.979C1158.65 195.504 1216.25 228.704 1287.09 225.226C1373.28 221.001 1438.05 180.665 1525.53 177.735" stroke="#BDEFF5" stroke-miterlimit="10"/>
<path d="M-91.2462 171.21C-27.4951 171.21 38.6925 180.788 101.635 172.653C188.235 161.459 265.482 134.871 350.813 121.462C499.019 98.1549 576.333 184.199 706.519 200.666C776.692 209.554 843.284 173.227 899.928 155.594C931.68 145.725 967.429 136.739 1004.45 142.148C1039.69 147.298 1071.07 158.56 1100.43 170.057C1153.93 191.026 1213.77 222.715 1284.76 219.181C1371.74 214.864 1437.28 174.214 1525.56 171.21" stroke="#BDEFF5" stroke-miterlimit="10"/>
<path d="M-91.2238 164.783C-26.8552 165.042 39.4447 176.193 103.14 167.818C187.157 156.772 261.451 130.121 344.121 116.83C489.262 93.5044 577.658 175.422 705.744 193.068C774.705 202.578 837.299 167.861 892.91 150.567C924.528 140.736 958.716 132.934 995.206 138.589C1030.92 144.14 1063.1 155.119 1093.64 166.374C1148.86 186.728 1210.97 216.893 1282.27 213.279C1370.1 208.832 1436.46 167.886 1525.59 164.783" stroke="#BDEFF5" stroke-miterlimit="10"/>
<path d="M-91.2014 158.492C-26.1928 159.017 40.2418 171.796 104.734 163.211C186.18 152.368 257.431 125.687 337.541 112.575C479.606 89.3168 578.938 166.757 704.947 185.58C772.672 195.695 831.012 162.686 885.646 145.732C917.151 135.956 949.644 129.406 985.573 135.247C1021.78 141.162 1054.79 151.899 1086.54 162.878C1143.54 182.614 1207.94 211.207 1279.59 207.512C1368.29 202.93 1435.52 161.675 1525.55 158.468" stroke="#BDEFF5" stroke-miterlimit="10"/>
<path d="M-91.179 152.337C-25.5416 153.133 41.0838 167.546 106.429 158.782C185.36 148.186 253.67 121.493 331.197 108.603C470.242 85.4805 580.195 158.27 704.138 178.222C770.64 188.929 824.601 157.678 878.303 141.05C909.673 131.336 940.583 126.076 975.917 132.126C1012.63 138.417 1046.51 148.883 1079.45 159.59C1138.23 178.71 1204.9 205.724 1277 201.937C1366.63 197.225 1434.69 155.68 1525.62 152.337" stroke="#BDEFF5" stroke-miterlimit="10"/>
<path d="M-91.1562 146.324C-24.9125 147.385 41.9375 163.396 108.035 154.484C184.541 144.165 249.965 117.478 325.023 104.841C461.316 81.8973 581.464 149.95 703.398 171.019C768.687 182.306 818.257 152.812 871.084 136.48C902.319 126.828 931.714 122.856 966.374 129.079C1003.59 135.753 1038.32 145.978 1072.44 156.389C1132.95 174.855 1201.84 200.346 1274.44 196.479C1364.97 191.637 1433.87 149.753 1525.68 146.336" stroke="#BDEFF5" stroke-miterlimit="10"/>
<path d="M-91.1338 140.44C-24.2277 141.754 42.7795 159.3 109.686 150.265C183.89 140.242 246.552 113.574 319.274 101.208C452.951 78.4741 582.71 141.803 702.6 163.988C766.801 175.866 811.936 148.007 864.033 132.003C895.167 122.443 923.023 119.667 957.1 126.069C994.802 133.125 1030.37 143.147 1065.6 153.256C1127.77 171.087 1198.79 195.079 1271.89 191.113C1363.27 186.148 1432.99 143.962 1525.64 140.44" stroke="#BDEFF5" stroke-miterlimit="10"/>
<path d="M-91.1114 134.698C-23.5765 136.227 43.6215 155.217 111.28 146.089C183.362 136.369 243.43 109.7 313.974 97.6243C382.407 85.9059 455.208 99.1354 519.128 113.272C580.768 126.908 639.366 144.794 701.927 157.16C765.318 169.693 805.75 143.147 857.453 127.556C926.111 106.863 996.43 133.106 1059.27 150.123C1122.94 167.343 1195.96 189.904 1269.55 185.852C1361.74 180.782 1432.21 138.3 1525.68 134.692" stroke="#BDEFF5" stroke-miterlimit="10"/>
<path d="M-91.089 129.085C-22.9254 130.794 44.2839 151.097 112.807 141.902C182.969 132.477 240.646 105.827 309.292 94.0164C377.097 82.335 451.817 95.0217 516.04 107.967C578.927 120.648 638.782 137.393 701.331 150.567C763.881 163.741 800.416 138.497 851.457 123.127C918.554 102.929 991.804 131.145 1053.56 146.965C1118.57 163.618 1193.43 184.809 1267.42 180.702C1360.33 175.54 1431.51 132.773 1525.66 129.085" stroke="#BDEFF5" stroke-miterlimit="10"/>
<path d="M-91.0665 123.615C-22.2629 125.465 44.8902 146.904 114.21 137.652C182.7 128.518 238.254 101.88 305.082 90.2974C372.37 78.6715 448.797 90.8402 513.312 102.713C577.31 114.499 638.366 130.239 700.815 144.221C730.277 150.814 751.868 151.085 780.352 142.58C803.504 135.666 823.085 125.625 846.203 118.662C877.046 109.361 901.612 109.62 933.914 116.534C972.729 124.854 1010.54 134.42 1048.63 143.715C1114.73 159.8 1191.22 179.758 1265.55 175.614C1359.1 170.396 1430.87 127.346 1525.69 123.615" stroke="#BDEFF5" stroke-miterlimit="10"/>
<path d="M-91.0437 118.274C-21.6001 120.124 45.3509 142.586 115.479 133.304C182.61 124.416 236.267 97.6799 301.748 86.3932C368.687 74.8537 446.518 86.5166 511.291 97.4949C576.064 108.473 638.254 123.399 700.501 138.201C729.266 145.041 750.296 146.009 778.534 137.547C800.922 130.837 819.605 120.932 841.937 114.172C872.611 104.884 896.795 105.87 928.536 113.013C967.542 121.789 1005.94 131.336 1044.74 140.372C1111.67 155.951 1189.66 174.799 1264.1 170.642C1358.17 165.394 1430.42 122.085 1525.71 118.329" stroke="#BDEFF5" stroke-miterlimit="10"/>
<path d="M-91.0217 113.08C-20.9269 114.881 45.6424 138.121 116.557 128.814C182.688 120.124 234.673 93.1837 299.243 82.2301C366.093 70.8755 444.766 82.008 509.943 92.2031C575.648 102.472 638.377 116.775 700.366 132.391C728.547 139.484 749.341 140.976 777.366 132.514C799.148 125.946 817.078 116.102 838.793 109.472C869.321 100.153 893.483 101.664 924.741 109.078C963.802 118.329 1002.65 127.901 1042.05 136.745C1109.41 151.874 1188.71 169.748 1263.09 165.622C1357.53 160.38 1430.12 116.824 1525.82 113.08" stroke="#BDEFF5" stroke-miterlimit="10"/>
<path d="M-90.9993 108.017C-20.2645 109.651 45.7321 133.452 117.433 124.12C182.879 115.603 233.741 88.5458 297.537 77.7217C364.173 66.4227 443.879 77.3146 509.225 86.8744C575.603 96.5883 638.613 110.502 700.31 126.964C728.031 134.365 748.937 136.153 776.815 127.636C798.148 121.117 815.517 111.267 836.816 104.686C867.232 95.287 891.731 97.0632 922.619 104.816C961.602 114.598 1000.74 124.238 1040.58 132.934C1108.15 147.681 1188.36 164.753 1262.44 160.688C1357.1 155.501 1429.88 111.711 1525.8 108.017" stroke="#BDEFF5" stroke-miterlimit="10"/>
<path d="M-90.9653 103.083C-19.8712 104.551 45.6651 128.61 117.803 119.193C183.025 110.681 233.584 83.6488 297.178 72.8863C363.747 61.6243 443.812 72.7383 509.18 82.0946C575.794 91.6296 638.602 105.439 700.377 121.974C727.998 129.375 749.196 130.917 776.883 122.455C798.07 115.979 815.327 106.216 836.514 99.7215C866.829 90.4331 891.777 92.1601 922.372 100.135C961.187 110.25 1000.37 119.964 1040.38 128.573C1107.62 143.049 1188.87 159.93 1262.38 155.711C1356.91 150.296 1430.16 107.246 1525.83 103.101" stroke="#BDEFF5" stroke-miterlimit="10"/>
<path d="M-90.9429 98.2289C-19.6916 99.6228 45.6539 123.843 117.961 114.314C183.081 105.729 233.898 78.9244 297.537 68.2298C364.106 57.0418 443.992 68.643 509.259 78.0609C575.66 87.6454 638.198 101.43 700.4 117.182C759.278 132.089 788.459 109.164 836.952 94.8676C867.266 85.9308 892.372 87.559 922.687 95.5645C961.333 105.772 1000.45 115.461 1040.44 123.972C1107.29 138.195 1189.6 155.156 1262.58 150.579C1356.71 144.671 1430.85 103.373 1525.89 98.3214" stroke="#BDEFF5" stroke-miterlimit="10"/>
<path d="M-90.9205 93.4489C-19.4559 94.7935 45.7324 119.192 118.264 109.583C183.385 100.949 234.403 74.4281 298.076 63.8322C364.645 52.7305 444.295 64.7758 509.461 74.2246C575.603 83.8152 637.906 97.5381 700.467 112.494C758.851 126.458 789.076 103.94 837.603 90.2911C867.918 81.7429 893.247 83.3218 923.293 91.3396C961.759 101.603 1000.76 111.218 1040.75 119.581C1107.33 133.514 1190.46 150.296 1262.83 145.411C1356.48 139.095 1431.54 99.5919 1525.87 93.7388" stroke="#BDEFF5" stroke-miterlimit="10"/>
<path d="M-90.8976 88.7556C-19.186 90.0631 45.9012 114.659 118.702 105.007C183.744 96.3849 235.066 70.1665 298.784 59.6816C365.353 48.7649 444.744 61.1125 509.787 70.5674C575.615 80.1271 637.783 93.7452 700.569 107.875C758.537 120.907 789.795 98.8889 838.445 85.8753C868.839 77.7526 894.359 79.3315 924.18 87.3432C962.433 97.6246 1001.36 107.129 1041.27 115.295C1107.69 128.894 1191.32 145.263 1263.2 140.125C1356.39 133.471 1432.31 95.8236 1525.93 89.249" stroke="#BDEFF5" stroke-miterlimit="10"/>
<path d="M-90.8757 84.1421C-18.8609 85.4373 46.1028 110.225 119.274 100.566C184.26 91.9935 235.897 66.0711 299.67 55.7959C366.217 45.0705 445.204 57.6955 510.224 67.1196C575.693 76.6177 637.67 90.0939 700.714 103.373C758.245 115.492 790.603 94.0535 839.478 81.743C869.972 74.0581 895.695 75.6925 925.325 83.6796C963.279 94.0131 1002.23 103.208 1041.99 111.224C1108.35 124.447 1192.22 140.212 1263.68 134.84C1356.27 127.914 1433.12 92.1662 1525.92 84.9686" stroke="#BDEFF5" stroke-miterlimit="10"/>
<path d="M-90.8416 79.6152C-18.5013 80.9104 46.44 105.914 119.97 96.2677C184.901 87.7626 236.885 62.1856 300.737 52.1201C367.262 41.6352 445.912 54.4576 510.808 63.8385C575.929 73.2379 637.738 86.5291 700.928 98.9444C758.032 110.169 791.558 89.3662 840.724 77.8019C871.365 70.592 897.278 72.319 926.74 80.269C964.466 90.5341 1003.27 99.5568 1042.95 107.289C1109.34 120.099 1193.2 135.006 1264.28 129.492C1356.27 122.357 1434 88.5644 1525.99 80.8056" stroke="#BDEFF5" stroke-miterlimit="10"/>
<path d="M-90.8192 75.1866C-18.1084 76.488 46.8217 101.707 120.768 92.1351C185.653 83.7349 238.008 58.528 301.882 48.703C368.373 38.4771 446.608 51.4537 511.448 60.7545C576.086 70.0058 637.872 83.0873 701.129 94.6207C757.83 104.964 792.591 84.8697 842.094 74.0888C872.903 67.3784 899.018 69.2349 928.357 77.1726C965.824 87.3396 1004.45 96.1593 1044 103.576C1110.5 115.911 1194.11 129.825 1264.89 124.182C1356.23 116.904 1434.81 85.1041 1525.96 76.8704" stroke="#BDEFF5" stroke-miterlimit="10"/>
<path d="M-90.7968 70.8447C-17.6817 72.1769 47.3044 97.6367 121.677 88.114C186.517 79.8618 239.254 55.0557 303.196 45.496C369.642 35.5661 447.45 48.6353 512.144 57.8311C576.333 66.9592 638.052 79.7446 701.332 90.3898C757.639 99.8571 793.702 80.5217 843.576 70.5672C874.576 64.3996 900.894 66.3979 930.142 74.2678C967.361 84.3142 1005.83 92.8984 1045.26 99.9558C1111.98 111.816 1195.11 124.552 1265.63 118.81C1356.31 111.409 1435.69 81.675 1526 73.0157" stroke="#BDEFF5" stroke-miterlimit="10"/>
<path d="M-90.7748 66.6014C-17.2219 67.9706 47.7531 93.6771 122.676 84.2839C187.471 76.155 240.623 51.7684 304.633 42.5047C371.022 32.9017 448.348 46.014 512.952 55.0927C576.692 64.0542 638.355 76.5189 701.578 86.2637C757.504 94.8983 794.948 76.3524 845.215 67.2552C876.428 61.6119 902.948 63.826 932.129 71.5725C969.088 81.4666 1007.37 89.7885 1046.65 96.4649C1113.63 107.782 1196.08 119.205 1266.4 113.395C1356.41 105.994 1436.55 78.3014 1526 69.2843" stroke="#BDEFF5" stroke-miterlimit="10"/>
<path d="M-90.752 62.463C-16.7387 63.8816 48.3036 89.8348 123.698 80.571C188.527 72.6334 242.094 48.6661 306.182 39.7231C372.505 30.4717 449.291 43.5779 513.896 52.5209C577.164 61.2912 638.782 73.3981 701.938 82.2363C757.482 90.0136 796.386 72.3312 847.068 64.1344C878.505 59.0523 905.216 61.4824 934.375 69.1919C971.065 78.9123 1009.16 86.9433 1048.27 93.2023C1115.5 103.94 1197.13 113.956 1267.29 108.078C1356.59 100.634 1437.44 75.1004 1526.04 65.775" stroke="#BDEFF5" stroke-miterlimit="10"/>
<path d="M-90.7296 58.448C-16.256 59.9097 48.8649 86.1096 124.922 77.0001C189.65 69.2412 243.666 45.7427 307.822 37.139C374.065 28.2515 450.324 41.3267 514.783 50.0909C577.591 58.6515 639.164 70.3576 702.185 78.2953C757.38 85.2523 797.823 68.4271 848.898 61.174C880.56 56.6655 907.484 59.3238 936.654 66.9777C973.067 76.5038 1010.96 84.2214 1049.87 90.0383C1117.54 100.153 1198.16 108.603 1268.21 102.737C1356.82 95.3363 1438.31 71.9488 1526.07 62.3582" stroke="#BDEFF5" stroke-miterlimit="10"/>
<path d="M-90.7072 54.5008C-15.6947 56.0488 49.5498 82.5016 126.145 73.5648C190.862 66.0218 245.35 42.9921 309.551 34.746C375.738 26.2532 451.424 39.2545 515.793 47.8706C578.129 56.2154 639.657 67.4774 702.51 74.5146C757.38 80.6822 799.417 64.7636 850.874 58.4789C882.772 54.5624 909.898 57.5044 939.113 65.0535C975.249 74.3659 1012.93 81.7496 1051.64 87.1026C1119.72 96.5514 1199.21 103.379 1269.17 97.5074C1357.09 90.1371 1439.16 68.9823 1526.09 59.1696" stroke="#BDEFF5" stroke-miterlimit="10"/>
<path d="M-90.6848 50.6829C-15.1333 52.3111 50.2234 79.0168 127.459 70.2773C192.12 62.9564 247.046 40.4138 311.358 32.544C377.456 24.4521 452.558 37.3609 516.826 45.7858C578.713 53.8962 640.163 64.6833 702.813 70.82C757.403 76.1673 801.067 61.2109 852.917 55.8636C885.04 52.5516 912.357 55.7835 941.672 63.2647C977.527 72.3456 1014.99 79.3726 1053.47 84.2345C1121.96 92.9678 1200.24 98.0993 1270.16 92.2524C1357.39 84.9685 1439.98 66.0463 1526.11 56.0363" stroke="#BDEFF5" stroke-miterlimit="10"/>
<path d="M-90.6624 46.9824C-14.5832 48.697 50.9419 75.6555 128.773 67.1258C193.444 60.0392 248.831 37.9963 313.222 30.515C379.23 22.8487 453.737 35.6279 517.96 43.8555C579.409 51.7315 640.769 62.0005 703.218 67.243C757.571 71.8008 802.898 57.8189 855.118 53.4584C887.476 50.7508 914.984 54.291 944.412 61.6613C979.988 70.5072 1017.23 77.1715 1055.47 81.5333C1124.42 89.5079 1201.36 92.8878 1271.26 87.0841C1357.72 79.8927 1440.8 63.2525 1526.13 53.076" stroke="#BDEFF5" stroke-miterlimit="10"/>
<path d="M-90.6395 43.3991C-14.0102 45.2062 51.6833 72.3867 130.154 64.116C194.826 57.2761 250.673 35.7327 315.142 28.6585C381.06 21.4425 454.961 34.0613 519.105 42.0792C580.139 49.7085 641.387 59.4286 703.566 63.7829C757.729 67.576 804.706 54.5871 857.263 51.2134C889.823 49.1226 917.544 52.9835 947.085 60.2612C982.384 68.8555 1019.4 75.1383 1057.37 78.9799C1126.76 86.1528 1202.35 87.7502 1272.25 81.9897C1358.08 74.9216 1441.49 60.582 1526.08 50.2574" stroke="#BDEFF5" stroke-miterlimit="10"/>
<path d="M-90.6171 39.9452C-13.4264 41.8448 52.458 69.3029 131.557 61.248C196.218 54.6549 252.559 33.6296 317.107 26.9932C382.913 20.2089 456.196 32.6859 520.329 40.4818C580.959 47.8829 642.072 57.0047 703.993 60.4771C758.054 63.5115 806.637 51.5341 859.598 49.1534C892.394 47.6793 920.228 51.8795 950.049 59.0585C985.076 67.3968 1021.87 73.2897 1059.56 76.5991C1217.88 90.9635 1373.01 66.731 1526.23 47.6115" stroke="#BDEFF5" stroke-miterlimit="10"/>
<path d="M-90.5947 36.6024C-12.8314 38.6068 53.2439 66.3055 132.995 58.5035C197.655 52.1755 254.479 31.6745 319.106 25.4267C384.799 19.0741 457.465 31.3969 521.463 38.9645C581.745 46.1128 642.678 54.6426 704.318 57.2144C758.369 59.4903 808.478 48.5798 861.832 47.1613C894.819 46.2978 922.889 50.8618 952.878 57.936C987.504 66.1574 1024.28 71.3999 1061.61 74.2986C1215.89 86.2823 1376.8 64.0358 1526.2 45.0458" stroke="#BDEFF5" stroke-miterlimit="10"/>
<path d="M-90.5728 33.3952C-12.2368 35.5045 54.0406 63.4436 134.442 55.9007C199.114 49.8133 256.409 29.8611 321.115 24.0328C386.696 18.1304 458.733 30.2867 522.664 37.6015C582.62 44.4783 643.34 52.4037 704.7 54.1368C758.851 55.6663 810.375 45.7858 864.134 45.3726C897.311 45.1197 925.561 50.0415 955.786 57.0294C990.187 64.9794 1026.71 69.7716 1063.73 72.1523C1134.25 76.6855 1205.76 72.8245 1275.7 67.2799C1359.61 60.6251 1443.65 53.3226 1526.22 42.6095" stroke="#BDEFF5" stroke-miterlimit="10"/>
<path d="M-90.5499 30.3177C-12.315 32.4948 53.8725 60.4834 134.196 53.588C198.609 48.0372 256.017 28.8621 320.217 23.0461C385.113 17.1684 455.702 28.8313 519.072 35.8747C580.33 42.659 642.386 50.239 705.093 51.1888C760.76 52.0338 815.001 42.696 870.545 43.7877C904.071 44.4476 932.017 50.4672 962.747 57.1529C994.668 64.0976 1028.37 68.0757 1062.46 69.9568C1135.01 73.9595 1206.97 68.0572 1278.66 62.4878C1361.41 56.0612 1444.9 51.1148 1526.28 40.3709" stroke="#BDEFF5" stroke-miterlimit="10"/>
<path d="M-90.5387 27.3756C-11.7648 29.6577 54.6922 57.8805 135.611 51.2504C200.035 45.9709 257.903 27.3016 322.204 21.9112C386.966 16.5084 456.993 28.0047 520.273 34.8199C581.24 41.3946 643.06 48.3886 705.441 48.3886C761.434 48.3886 816.876 40.2906 872.88 42.3567C906.451 43.5902 934.633 49.9552 965.599 56.499C997.306 63.197 1030.79 66.7557 1064.58 68.1619C1137.37 71.1902 1208.08 63.4005 1279.76 57.9854C1361.97 51.7746 1445.45 49.1287 1526.26 38.2491" stroke="#BDEFF5" stroke-miterlimit="10"/>
<path d="M-90.5163 24.5755C-11.1474 26.9624 55.4443 55.4135 137.048 49.0423C201.495 44.0096 259.812 25.8646 324.203 20.8935C388.83 15.8916 458.307 27.3078 521.553 33.9009C582.183 40.235 643.767 46.6 705.823 45.6995C762.22 44.8792 818.751 37.9962 875.227 41.0245C908.843 42.8316 937.249 49.5358 968.417 55.9377C999.855 62.3952 1033.18 65.5345 1066.66 66.4658C1139.64 68.5073 1209.18 58.8673 1280.84 53.6002C1362.53 47.593 1445.89 47.2599 1526.22 36.2446" stroke="#BDEFF5" stroke-miterlimit="10"/>
<path d="M-90.4939 21.9174C-10.5748 24.3845 56.2976 53.0761 138.473 46.9702C202.932 42.178 261.698 24.5263 326.19 19.9993C390.682 15.4723 459.598 26.7343 522.676 33.0993C583.159 39.2052 644.452 44.9719 706.171 43.1648C763.062 41.4995 820.559 35.85 877.506 39.8281C911.189 42.178 939.798 49.246 971.258 55.5C1002.72 61.7539 1035.62 64.443 1068.78 64.9117C1141.76 65.954 1210.39 54.507 1281.96 49.3879C1363.18 43.578 1446.47 45.5516 1526.27 34.376" stroke="#BDEFF5" stroke-miterlimit="10"/>
<path d="M-90.4827 19.4009C-10.0135 21.9913 57.0947 50.8556 139.854 45.0334C204.347 40.4756 263.539 23.3605 328.121 19.2159C392.434 15.0898 460.923 26.2778 523.888 32.4269C584.192 38.3108 645.148 43.473 706.563 40.7778C764.016 38.2552 822.366 33.8331 879.819 38.7425C913.401 41.6166 942.346 49.0547 974.031 55.1668C1005.13 61.1617 1038.03 63.4683 1070.84 63.4868C1143.82 63.5362 1211.56 50.3375 1283.04 45.3541C1363.88 39.717 1446.97 43.9911 1526.27 32.6366" stroke="#BDEFF5" stroke-miterlimit="10"/>
<path d="M-90.471 17.0388C-9.46284 19.7156 57.8475 48.8204 141.202 43.2203C205.728 38.9029 265.347 22.2505 330.008 18.5499C394.253 14.8494 462.057 25.951 525.034 31.8842C585.215 37.5337 645.867 42.1163 706.923 38.5452C764.993 35.1531 824.096 31.9582 882.076 37.7804C915.647 41.1418 944.839 48.9561 976.76 54.9263C1007.71 60.7115 1040.33 62.605 1072.84 62.1856C1145.7 61.2543 1212.74 46.3657 1284.12 41.4995C1364.5 36.0227 1447.37 42.5973 1526.3 31.0146" stroke="#BDEFF5" stroke-miterlimit="10"/>
<path d="M-90.4486 14.8245C-8.93519 17.5938 58.6109 46.896 142.516 41.5425C207.075 37.4164 267.144 21.3005 331.838 17.9515C395.948 14.6333 463.203 25.7165 526.145 31.4277C586.214 36.8613 646.563 40.8702 707.271 36.4419C765.992 32.1616 825.825 30.1756 884.209 36.8921C917.747 40.7469 947.186 48.9313 979.387 54.7782C1010.15 60.329 1042.6 61.8585 1074.82 61.0136C1147.5 59.1201 1213.97 42.6157 1285.22 37.8543C1365.22 32.507 1447.84 41.3637 1526.39 29.5527" stroke="#BDEFF5" stroke-miterlimit="10"/>
<path d="M-90.4374 12.7647C-8.47492 15.6203 59.3182 45.1322 143.762 39.9946C208.355 36.0597 268.761 20.431 333.601 17.452C397.599 14.5163 464.359 25.5809 527.201 31.0947C587.191 36.368 647.236 39.7725 707.586 34.5054C766.992 29.3246 827.363 28.5229 886.253 36.109C919.723 40.4263 949.442 48.9807 981.857 54.6919C1012.46 60.0824 1044.73 61.1987 1076.62 59.9529C1149.04 57.122 1215.05 39.0941 1286.16 34.3944C1365.88 29.1458 1448.17 40.2721 1526.37 28.1775" stroke="#BDEFF5" stroke-miterlimit="10"/>
<path d="M-90.4267 10.8711C-7.94769 13.7946 60.0251 43.5038 144.94 38.5698C209.59 34.8199 270.366 19.6538 335.273 17.0387C399.17 14.4668 465.414 25.5315 528.199 30.8726C588.133 35.9732 647.887 38.8103 707.9 32.7229C767.912 26.6355 828.879 26.9932 888.228 35.4181C921.62 40.161 951.631 48.9868 984.226 54.6733C1014.54 59.9713 1046.85 60.6374 1078.35 58.9906C1150.47 55.2901 1216.11 35.8067 1287.08 31.1687C1366.45 25.9817 1448.5 39.3592 1526.37 26.9377" stroke="#BDEFF5" stroke-miterlimit="10"/>
<path d="M-90.359 9.10718C-7.4309 12.0923 60.6878 41.9989 146.108 37.256C210.735 33.685 271.87 18.9753 336.857 16.6995C400.608 14.4668 466.425 25.5685 529.143 30.7554C589.043 35.6895 648.516 37.99 708.18 31.1008C768.967 24.0882 830.293 25.55 890.07 34.8013C923.394 39.9451 953.664 49.104 986.449 54.7103C1016.64 59.8726 1048.79 60.1686 1079.95 58.1888C1113.96 56.024 1147.12 51.0653 1179.77 45.5638C1215 39.6367 1251.26 30.5951 1287.96 28.202C1367.06 23.0398 1448.83 38.6376 1526.38 25.846" stroke="#BDEFF5" stroke-miterlimit="10"/>
<path d="M-90.359 7.56528C-7.0267 10.5997 61.2155 40.6976 147.13 36.115C211.813 32.6612 273.274 18.3586 338.339 16.4219C401.989 14.5038 467.334 25.6733 529.996 30.7307C589.896 35.5538 649.134 37.3115 708.45 29.6452C769.899 21.7014 831.63 24.2239 891.844 34.2771C925.022 39.8279 955.55 49.2643 988.504 54.7905C1018.57 59.8294 1050.57 59.7924 1081.44 57.4734C1115.38 54.9323 1148.34 49.5419 1180.8 43.6888C1215.78 37.3856 1252.09 27.8751 1288.78 25.4636C1367.63 20.289 1449.14 38.0763 1526.39 24.8469" stroke="#BDEFF5" stroke-miterlimit="10"/>
<path d="M-90.359 6.16534C-6.64497 9.24914 61.7769 39.5258 148.062 35.079C212.79 31.7362 274.543 17.8653 339.663 16.2062C403.224 14.5841 468.131 25.8831 530.748 30.811C590.66 35.5169 649.684 36.7812 708.652 28.344C770.809 19.4812 832.82 22.9967 893.461 33.8208C926.515 39.717 957.268 49.4433 990.39 54.9078C1020.33 59.8419 1052.14 59.4965 1082.78 56.8752C1116.65 53.9765 1149.44 48.1789 1181.73 42.0052C1216.47 35.3627 1252.83 25.4329 1289.52 22.9844C1368.11 17.7419 1449.44 37.694 1526.42 23.9897" stroke="#BDEFF5" stroke-miterlimit="10"/>
<path d="M-90.359 4.9379C-6.29691 8.02169 62.2372 38.5081 148.893 34.1661C213.699 30.9158 275.766 17.4273 340.955 16.0396C404.448 14.6827 468.951 26.1482 531.501 30.9774C591.434 35.597 650.29 36.3926 708.899 27.2337C771.696 17.4211 833.864 21.8618 894.931 33.4013C927.874 39.6367 958.829 49.6159 992.085 55.031C1021.93 59.8849 1053.62 59.2682 1083.97 56.3694C1117.79 53.1376 1150.41 46.97 1182.55 40.5002C1217.1 33.537 1253.48 23.268 1290.22 20.7639C1368.65 15.4105 1449.77 37.4781 1526.42 23.231" stroke="#BDEFF5" stroke-miterlimit="10"/>
<path d="M-90.359 3.88943C-5.97128 6.97323 62.6302 37.6508 149.623 33.3767C214.441 30.1942 276.788 17.0634 342.033 15.8916C405.458 14.7752 469.535 26.4443 532.085 31.2057C592.052 35.7697 650.796 36.1397 709.068 26.2716C772.516 15.5215 834.717 20.801 896.234 33.056C929.03 39.5936 960.165 49.8009 993.545 55.1791C1023.3 59.9775 1054.84 59.1263 1084.97 55.9809C1118.75 52.4468 1151.22 45.9462 1183.23 39.205C1217.62 31.9581 1253.96 21.4239 1290.8 18.852C1369.07 13.332 1450.09 37.4781 1526.44 22.6019" stroke="#BDEFF5" stroke-miterlimit="10"/>
<path d="M-90.359 3.01364C-6.38673 6.09744 61.9902 36.775 148.478 32.7969C216.821 29.6576 282.885 15.4783 351.846 15.7682C410.802 16.0149 469.961 26.654 528.2 31.2304C590.076 36.0904 649.302 35.9547 709.225 25.55C775.67 14.0413 837.928 20.0917 901.971 33.7776C930.681 39.9082 958.031 48.2714 986.954 54.0134C1017.56 60.0885 1051.17 59.4964 1082.66 56.1227C1118.4 52.2988 1152.61 45.0211 1186.31 37.62C1220.29 30.1325 1256.41 19.5921 1293.04 17.1251C1370.52 11.9381 1451.09 37.546 1526.42 22.1023" stroke="#BDEFF5" stroke-miterlimit="10"/>
<path d="M-90.359 2.32291C-6.15093 5.36353 62.226 36.2446 148.949 32.2604C217.315 29.1149 283.682 15.2687 352.62 15.7312C411.532 16.1321 470.388 27.0673 528.593 31.6498C590.514 36.5222 649.729 36.0411 709.36 24.958C776.479 12.4748 838.411 19.2344 902.982 33.5926C931.557 39.9452 958.986 48.3825 987.987 54.1306C1018.53 60.2119 1051.99 59.4964 1083.3 55.9316C1119.01 51.8671 1153.09 44.2748 1186.7 36.6764C1220.63 29.0039 1256.73 18.3463 1293.46 15.7559C1370.79 10.3408 1451.45 37.8667 1526.44 21.6768" stroke="#BDEFF5" stroke-miterlimit="10"/>
<path d="M-90.359 1.82959C-5.98251 4.82087 62.3383 35.887 149.308 31.8411C217.685 28.6586 284.199 15.1084 353.227 15.719C412.116 16.2371 470.691 27.5238 528.874 32.1433C590.828 37.0773 650.133 36.2941 709.382 24.5448C777.153 11.1118 838.591 18.4389 903.712 33.4015C932.219 39.9453 959.716 48.4689 988.739 54.2849C1019.26 60.397 1052.42 59.6261 1083.71 55.8947C1156.01 47.26 1220.78 20.2275 1293.77 14.7754C1370.97 9.00866 1451.84 38.391 1526.44 21.387" stroke="#BDEFF5" stroke-miterlimit="10"/>
<path d="M-90.359 1.51572C-5.8478 4.44532 62.4506 35.6965 149.522 31.5519C217.91 28.2892 284.648 15.0042 353.642 15.7135C412.543 16.3303 470.86 28.0117 529.019 32.7114C590.997 37.7195 650.504 36.708 709.416 24.3235C777.781 9.94681 838.535 17.6995 904.273 33.2665C932.544 39.946 960.109 48.7964 989.2 54.3843C1020.1 60.3113 1052.27 59.8302 1083.89 55.9323C1156.31 47.0017 1220.73 19.9445 1293.98 14.0976C1371.07 7.93001 1452.29 39.1072 1526.39 21.2027" stroke="#BDEFF5" stroke-miterlimit="10"/>
<path d="M-90.359 1.39777C-5.75797 4.24102 62.4169 35.6772 149.578 31.3784C217.966 28.0047 284.794 14.9418 353.923 15.7066C412.835 16.3603 470.927 28.5351 529.076 33.3459C591.053 38.4711 650.874 37.2931 709.438 24.2857C778.331 8.97156 838.231 17.0018 904.599 33.1608C965.228 47.9137 1015.18 64.708 1083.84 56.0611C1156.45 46.9146 1220.56 20.0856 1294.07 13.7699C1371.07 7.15212 1452.71 40.013 1526.48 21.1711" stroke="#BDEFF5" stroke-miterlimit="10"/>
</svg>
